<?xml version="1.0" encoding="UTF-8"?>
<svg version="1.1" xmlns="http://www.w3.org/2000/svg" width="400" height="400">
<path d="M0 0 C132 0 264 0 400 0 C400 132 400 264 400 400 C268 400 136 400 0 400 C0 268 0 136 0 0 Z " fill="#FEFEFE" transform="translate(0,0)"/>
<path d="M0 0 C9.25171467 0.16326555 18.42325933 0.93189876 27.6328125 1.80859375 C29.56713135 1.98467163 29.56713135 1.98467163 31.54052734 2.16430664 C32.76078613 2.2905542 33.98104492 2.41680176 35.23828125 2.546875 C36.88606567 2.71183472 36.88606567 2.71183472 38.56713867 2.88012695 C41.71988443 3.55485573 43.27036226 4.11289324 45.4453125 6.49609375 C47.54659484 17.53053106 44.59254448 30.75992775 43.41894531 41.828125 C43.07039838 45.12028255 42.73357379 48.41348423 42.3984375 51.70703125 C42.177771 53.83731093 41.95643934 55.96752183 41.734375 58.09765625 C41.58580551 59.54659775 41.58580551 59.54659775 41.43423462 61.02481079 C41.13191158 63.85263541 40.79744343 66.67405284 40.4453125 69.49609375 C40.31823914 70.56446472 40.19116577 71.63283569 40.0602417 72.73358154 C39.91322815 73.79780334 39.7662146 74.86202515 39.61474609 75.95849609 C39.48715912 76.92298676 39.35957214 77.88747742 39.2281189 78.88119507 C38.27438985 82.06704645 37.02652183 83.43640577 34.4453125 85.49609375 C24.81106053 87.00466278 14.33856213 84.9898437 4.7578125 83.68359375 C3.40175498 83.51577209 2.04563523 83.34845249 0.68945312 83.18164062 C-0.59123047 83.01083984 -1.87191406 82.84003906 -3.19140625 82.6640625 C-4.34342529 82.51219482 -5.49544434 82.36032715 -6.68237305 82.20385742 C-9.70259936 81.45964696 -10.88425106 81.09887526 -12.5546875 78.49609375 C-14.00385767 69.08690261 -11.85873353 58.78487091 -10.7421875 49.37109375 C-10.55756097 47.78260584 -10.3734028 46.19406343 -10.18969727 44.60546875 C-9.91203069 42.20667082 -9.63365621 39.80797274 -9.35227966 37.40960693 C-8.77133084 32.44442887 -8.23334793 27.47721106 -7.7265625 22.50390625 C-7.60128174 21.31039551 -7.47600098 20.11688477 -7.34692383 18.88720703 C-7.11611705 16.68080229 -6.89412697 14.47345145 -6.68237305 12.26513672 C-6.57707275 11.28947754 -6.47177246 10.31381836 -6.36328125 9.30859375 C-6.27876709 8.46941406 -6.19425293 7.63023437 -6.10717773 6.765625 C-5.19613068 3.02320636 -3.86066138 0.7497003 0 0 Z " fill="#F8FDFC" transform="translate(75.5546875,155.50390625)"/>
<path d="M0 0 C5.37877235 2.46778881 9.56659488 5.48084601 12.2734375 10.89453125 C13.73924082 18.09029298 14.05822691 24.96539677 10.3046875 31.48046875 C7.26716594 35.52461083 3.77355001 38.66532708 -1.0390625 40.26953125 C-3.2734375 40.5078125 -3.2734375 40.5078125 -5.7890625 40.58203125 C-7.01882813 40.63810547 -7.01882813 40.63810547 -8.2734375 40.6953125 C-11.0390625 40.26953125 -11.0390625 40.26953125 -18.0390625 36.26953125 C-18.0390625 42.20953125 -18.0390625 48.14953125 -18.0390625 54.26953125 C-21.3390625 54.26953125 -24.6390625 54.26953125 -28.0390625 54.26953125 C-28.0390625 36.44953125 -28.0390625 18.62953125 -28.0390625 0.26953125 C-24.7390625 0.26953125 -21.4390625 0.26953125 -18.0390625 0.26953125 C-17.7090625 1.25953125 -17.3790625 2.24953125 -17.0390625 3.26953125 C-16.54277344 2.98078125 -16.04648438 2.69203125 -15.53515625 2.39453125 C-10.26079627 -0.48785143 -5.98695944 -2.14475367 0 0 Z " fill="#2E9DB3" transform="translate(267.0390625,199.73046875)"/>
<path d="M0 0 C9.25171467 0.16326555 18.42325933 0.93189876 27.6328125 1.80859375 C29.56713135 1.98467163 29.56713135 1.98467163 31.54052734 2.16430664 C32.76078613 2.2905542 33.98104492 2.41680176 35.23828125 2.546875 C36.88606567 2.71183472 36.88606567 2.71183472 38.56713867 2.88012695 C41.71988443 3.55485573 43.27036226 4.11289324 45.4453125 6.49609375 C47.54659484 17.53053106 44.59254448 30.75992775 43.41894531 41.828125 C43.07039838 45.12028255 42.73357379 48.41348423 42.3984375 51.70703125 C42.177771 53.83731093 41.95643934 55.96752183 41.734375 58.09765625 C41.58580551 59.54659775 41.58580551 59.54659775 41.43423462 61.02481079 C41.13191158 63.85263541 40.79744343 66.67405284 40.4453125 69.49609375 C40.31823914 70.56446472 40.19116577 71.63283569 40.0602417 72.73358154 C39.91322815 73.79780334 39.7662146 74.86202515 39.61474609 75.95849609 C39.48715912 76.92298676 39.35957214 77.88747742 39.2281189 78.88119507 C38.27438985 82.06704645 37.02652183 83.43640577 34.4453125 85.49609375 C24.81106053 87.00466278 14.33856213 84.9898437 4.7578125 83.68359375 C3.40175498 83.51577209 2.04563523 83.34845249 0.68945312 83.18164062 C-0.59123047 83.01083984 -1.87191406 82.84003906 -3.19140625 82.6640625 C-4.34342529 82.51219482 -5.49544434 82.36032715 -6.68237305 82.20385742 C-9.70259936 81.45964696 -10.88425106 81.09887526 -12.5546875 78.49609375 C-14.00385767 69.08690261 -11.85873353 58.78487091 -10.7421875 49.37109375 C-10.55756097 47.78260584 -10.3734028 46.19406343 -10.18969727 44.60546875 C-9.91203069 42.20667082 -9.63365621 39.80797274 -9.35227966 37.40960693 C-8.77133084 32.44442887 -8.23334793 27.47721106 -7.7265625 22.50390625 C-7.60128174 21.31039551 -7.47600098 20.11688477 -7.34692383 18.88720703 C-7.11611705 16.68080229 -6.89412697 14.47345145 -6.68237305 12.26513672 C-6.57707275 11.28947754 -6.47177246 10.31381836 -6.36328125 9.30859375 C-6.27876709 8.46941406 -6.19425293 7.63023437 -6.10717773 6.765625 C-5.19613068 3.02320636 -3.86066138 0.7497003 0 0 Z M1.4453125 7.49609375 C-0.01318273 14.27172393 -1.08164625 21.00754654 -1.84375 27.89453125 C-1.95190033 28.85074371 -2.06005066 29.80695618 -2.17147827 30.79214478 C-2.39714205 32.80030876 -2.62055363 34.80872701 -2.84179688 36.81738281 C-3.17813762 39.85708664 -3.52616631 42.89530141 -3.875 45.93359375 C-4.94868396 55.47816869 -5.99365098 64.87740274 -5.5546875 74.49609375 C0.74961138 75.91964511 7.03038152 76.88578546 13.4453125 77.62109375 C14.54721924 77.75233643 14.54721924 77.75233643 15.67138672 77.88623047 C21.27573371 78.50123609 26.81056007 78.5887319 32.4453125 78.49609375 C34.41069516 65.94444538 35.97612326 53.35740448 37.36047363 40.73007202 C37.54090145 39.08440617 37.72292871 37.43891482 37.90661621 35.79360962 C39.26329173 23.67716165 39.26329173 23.67716165 39.4453125 11.49609375 C34.99848777 10.92161991 30.55106171 10.35212217 26.10302734 9.78710938 C24.59178724 9.59444646 23.08071587 9.40045487 21.56982422 9.20507812 C19.39073634 8.9235348 17.21107457 8.64686807 15.03125 8.37109375 C13.7220459 8.20351562 12.4128418 8.0359375 11.06396484 7.86328125 C7.82317489 7.53443574 4.69896288 7.42564936 1.4453125 7.49609375 Z " fill="#3E9BAE" transform="translate(75.5546875,155.50390625)"/>
<path d="M0 0 C0.33 0.33 0.66 0.66 1 1 C1.33 0.01 1.66 -0.98 2 -2 C5.3 -2 8.6 -2 12 -2 C12 10.87 12 23.74 12 37 C8.7 37 5.4 37 2 37 C2 36.01 2 35.02 2 34 C1.071875 34.66 0.14375 35.32 -0.8125 36 C-5.68682189 38.77400433 -10.53623715 38.8170884 -16 38 C-22.05419228 35.02794197 -25.98602959 30.29551873 -28.45703125 24.015625 C-30.20955351 17.50985892 -29.54335107 11.57577916 -26.203125 5.75390625 C-19.41144441 -4.1469528 -10.16199703 -5.18469236 0 0 Z " fill="#359CB1" transform="translate(315,202)"/>
<path d="M0 0 C0 2.97 0 5.94 0 9 C-1.98 9.33 -3.96 9.66 -6 10 C-6.33 12.31 -6.66 14.62 -7 17 C-5.02 17 -3.04 17 -1 17 C-1 19.64 -1 22.28 -1 25 C-2.98 25 -4.96 25 -7 25 C-7 35.56 -7 46.12 -7 57 C-10.3 57 -13.6 57 -17 57 C-17.83360594 46.63946908 -18.12288464 36.3905794 -18 26 C-19.32 26 -20.64 26 -22 26 C-22.33 35.9 -22.66 45.8 -23 56 C-26.63 56 -30.26 56 -34 56 C-34 41.81 -34 27.62 -34 13 C-35.32 12.67 -36.64 12.34 -38 12 C-37.71905418 10.1858073 -37.42493567 8.37364999 -37.125 6.5625 C-36.96257812 5.55316406 -36.80015625 4.54382813 -36.6328125 3.50390625 C-36.42398438 2.67761719 -36.21515625 1.85132813 -36 1 C-32.41980989 -0.79009505 -28.43803267 -0.46638897 -24.6875 0.75 C-22.6226666 2.27950623 -21.89641261 3.60956636 -21 6 C-21 6.66 -21 7.32 -21 8 C-20.01 8.33 -19.02 8.66 -18 9 C-18.103125 8.278125 -18.20625 7.55625 -18.3125 6.8125 C-18 4 -18 4 -16.3125 1.125 C-11.08795406 -2.22659551 -5.94757358 -0.87950942 0 0 Z " fill="#EDFCEA" transform="translate(234,183)"/>
<path d="M0 0 C2.57161458 0.03255208 5.14322917 0.06510417 7.71484375 0.09765625 C11.77631592 9.70355244 15.65866427 19.37815912 19.50073242 29.07348633 C20.19188358 30.81492426 20.88528671 32.5554699 21.58081055 34.29516602 C22.59527455 36.83286488 23.60307485 39.37311715 24.609375 41.9140625 C25.07800713 43.08117516 25.07800713 43.08117516 25.55610657 44.27186584 C26.76801582 47.35024634 27.71484375 49.7580125 27.71484375 53.09765625 C24.41484375 53.09765625 21.11484375 53.09765625 17.71484375 53.09765625 C13.71484375 44.34765625 13.71484375 44.34765625 13.71484375 42.09765625 C6.45484375 42.09765625 -0.80515625 42.09765625 -8.28515625 42.09765625 C-8.61515625 43.41765625 -8.94515625 44.73765625 -9.28515625 46.09765625 C-10.21417778 48.46593913 -11.2556204 50.77000998 -12.28515625 53.09765625 C-15.58515625 53.09765625 -18.88515625 53.09765625 -22.28515625 53.09765625 C-21.65216862 48.02779771 -20.13893121 43.69627942 -18.265625 38.98828125 C-17.96578201 38.22143005 -17.66593903 37.45457886 -17.35700989 36.66448975 C-16.40099702 34.22336966 -15.43693976 31.78551944 -14.47265625 29.34765625 C-13.83606199 27.72546695 -13.19998941 26.10307283 -12.56445312 24.48046875 C-11.07220731 20.67474899 -9.57132469 16.87252807 -8.06585693 13.07202148 C-7.3667306 11.30395498 -6.6725399 9.5339387 -5.97900391 7.76367188 C-5.62241699 6.85810547 -5.26583008 5.95253906 -4.8984375 5.01953125 C-4.60364502 4.26768555 -4.30885254 3.51583984 -4.00512695 2.74121094 C-2.92583278 0.27738985 -2.78109764 0.11885033 0 0 Z " fill="#3BA329" transform="translate(142.28515625,185.90234375)"/>
<path d="M0 0 C0.99 0 1.98 0 3 0 C3.08333357 4.8333472 2.95261487 9.23692563 2 14 C3.98 13.67 5.96 13.34 8 13 C8 13.66 8 14.32 8 15 C9.32 15 10.64 15 12 15 C12 15.99 12 16.98 12 18 C14.97 18 17.94 18 21 18 C21.02710123 20.5625718 21.04688771 23.12485365 21.0625 25.6875 C21.07087891 26.40873047 21.07925781 27.12996094 21.08789062 27.87304688 C21.10552577 31.73514468 20.82587201 35.23642411 20 39 C15.0519151 38.88189912 10.10403724 38.7576616 5.15625 38.62768555 C3.47237358 38.58432183 1.78845277 38.5426478 0.10449219 38.50268555 C-2.31328724 38.44501766 -4.73084295 38.3813135 -7.1484375 38.31640625 C-7.9036972 38.29969376 -8.65895691 38.28298126 -9.43710327 38.26576233 C-14.77225659 38.11387171 -14.77225659 38.11387171 -17 37 C-17 33.04 -17 29.08 -17 25 C-16.01 24.67 -15.02 24.34 -14 24 C-14 19.05 -14 14.1 -14 9 C-13.01 10.485 -13.01 10.485 -12 12 C-11.34 11.67 -10.68 11.34 -10 11 C-10 11.66 -10 12.32 -10 13 C-7.03 13.33 -4.06 13.66 -1 14 C-1.01160156 13.07316406 -1.02320312 12.14632812 -1.03515625 11.19140625 C-1.04417969 9.99386719 -1.05320312 8.79632813 -1.0625 7.5625 C-1.07410156 6.36753906 -1.08570312 5.17257813 -1.09765625 3.94140625 C-1 1 -1 1 0 0 Z " fill="#FAFDFC" transform="translate(87,193)"/>
<path d="M0 0 C3.3 0 6.6 0 10 0 C10.63808594 1.49273437 11.27617187 2.98546875 11.93359375 4.5234375 C12.76819742 6.47397192 13.60283457 8.42449201 14.4375 10.375 C15.06881836 11.85226563 15.06881836 11.85226563 15.71289062 13.359375 C16.11572266 14.30039063 16.51855469 15.24140625 16.93359375 16.2109375 C17.4913147 17.51490479 17.4913147 17.51490479 18.06030273 18.84521484 C18.67127388 20.24621026 19.31646889 21.63293778 20 23 C20.29769287 22.3387915 20.59538574 21.67758301 20.90209961 20.99633789 C22.2448945 18.0173313 23.59114902 15.03990101 24.9375 12.0625 C25.40607422 11.02158203 25.87464844 9.98066406 26.35742188 8.90820312 C27.0293457 7.42416992 27.0293457 7.42416992 27.71484375 5.91015625 C28.33540649 4.53549194 28.33540649 4.53549194 28.96850586 3.13305664 C30 1 30 1 31 0 C34.33327842 -0.1424478 37.66453893 -0.04222103 41 0 C36.2671047 11.82569851 31.11553812 23.38335151 25.625 34.875 C24.5395806 37.154429 23.45543094 39.43444719 22.37313843 41.71536255 C21.70851466 43.11531136 21.04196935 44.51435008 20.37319946 45.912323 C19.10075123 48.58667279 17.93775127 51.1867462 17 54 C13.7 54 10.4 54 7 54 C7.77538666 49.0803053 9.74561052 45.14766376 11.94140625 40.71875 C13.41749834 36.92775335 13.46774502 34.40773261 12.1875 30.5546875 C11.795625 29.67039063 11.40375 28.78609375 11 27.875 C10.55269531 26.84375 10.10539062 25.8125 9.64453125 24.75 C9.26095459 23.87794922 9.26095459 23.87794922 8.86962891 22.98828125 C7.10969143 18.96443767 5.4014394 14.91858793 3.6875 10.875 C3.32591797 10.03308105 2.96433594 9.19116211 2.59179688 8.32373047 C2.25599609 7.53369629 1.92019531 6.74366211 1.57421875 5.9296875 C1.27088623 5.22054199 0.96755371 4.51139648 0.6550293 3.78076172 C0 2 0 2 0 0 Z " fill="#2C9DB5" transform="translate(333,200)"/>
<path d="M0 0 C-0.39341588 3.60443418 -0.79033676 7.20847696 -1.1875 10.8125 C-1.31479492 11.9763623 -1.44208984 13.14022461 -1.57324219 14.33935547 C-2.34089074 21.28985471 -3.14350112 28.23451996 -3.99507141 35.17527771 C-4.46766943 39.02954804 -4.93293226 42.88469409 -5.39834595 46.73983765 C-5.63161718 48.65372251 -5.86853989 50.56716607 -6.10922241 52.48013306 C-6.45194628 55.20705652 -6.78179396 57.93528417 -7.109375 60.6640625 C-7.21439835 61.47261185 -7.31942169 62.28116119 -7.42762756 63.11421204 C-8.05120803 68.44152539 -8.27595823 73.74460768 -7 79 C-4.18600131 82.3105867 -2.4577851 82.90994391 1.8125 83.75 C2.864375 83.8325 3.91625 83.915 5 84 C5 84.66 5 85.32 5 86 C3.06318839 86.08107583 1.1254066 86.13922475 -0.8125 86.1875 C-1.89144531 86.22230469 -2.97039062 86.25710937 -4.08203125 86.29296875 C-7 86 -7 86 -8.64331055 84.91870117 C-10.68598327 82.02984659 -10.49021655 79.51617241 -10.625 76.0078125 C-10.65685394 75.31399475 -10.68870789 74.620177 -10.7215271 73.90533447 C-10.7895288 72.41782565 -10.85179114 70.93004545 -10.90887451 69.44207764 C-11.06160873 65.55845456 -11.26756534 61.67782134 -11.4765625 57.796875 C-11.53790878 56.64854691 -11.53790878 56.64854691 -11.60049438 55.47702026 C-12.36525604 41.84780292 -14.56888151 28.66595788 -18.08203125 15.48828125 C-19.25605643 11.02698557 -20.1712245 6.53645539 -21 2 C-18.62561751 1.6616656 -16.25065041 1.32920998 -13.875 1 C-12.87726562 0.85691406 -12.87726562 0.85691406 -11.859375 0.7109375 C-7.87371019 0.16388547 -4.02140062 -0.10022182 0 0 Z " fill="#3BA32C" transform="translate(69,156)"/>
<path d="M0 0 C1.15048828 0.02320313 1.15048828 0.02320313 2.32421875 0.046875 C4.3125 0.25 4.3125 0.25 6.3125 1.25 C6.3125 3.56 6.3125 5.87 6.3125 8.25 C4.3325 8.58 2.3525 8.91 0.3125 9.25 C-0.0175 11.56 -0.3475 13.87 -0.6875 16.25 C1.2925 16.25 3.2725 16.25 5.3125 16.25 C5.3125 18.89 5.3125 21.53 5.3125 24.25 C3.3325 24.25 1.3525 24.25 -0.6875 24.25 C-0.6875 34.81 -0.6875 45.37 -0.6875 56.25 C-3.9875 56.25 -7.2875 56.25 -10.6875 56.25 C-10.6875 45.69 -10.6875 35.13 -10.6875 24.25 C-11.6775 24.25 -12.6675 24.25 -13.6875 24.25 C-13.6875 21.61 -13.6875 18.97 -13.6875 16.25 C-12.3675 16.25 -11.0475 16.25 -9.6875 16.25 C-9.74550781 15.34636719 -9.80351562 14.44273437 -9.86328125 13.51171875 C-9.93095703 11.74248047 -9.93095703 11.74248047 -10 9.9375 C-10.05800781 8.76574219 -10.11601562 7.59398437 -10.17578125 6.38671875 C-9.6875 3.25 -9.6875 3.25 -7.4609375 1.34765625 C-4.71320728 0.26017429 -2.92747317 -0.09940486 0 0 Z " fill="#3CA32C" transform="translate(227.6875,183.75)"/>
<path d="M0 0 C0.66 0 1.32 0 2 0 C1.42151831 16.73607359 -0.04688426 33.50230532 -3 50 C-12.44573505 50.30470113 -21.6421436 49.14169926 -31 48 C-31 47.67 -31 47.34 -31 47 C-27.62501842 46.97077354 -24.25006979 46.95312532 -20.875 46.9375 C-19.44800781 46.92493164 -19.44800781 46.92493164 -17.9921875 46.91210938 C-17.0640625 46.90888672 -16.1359375 46.90566406 -15.1796875 46.90234375 C-14.33132324 46.89710693 -13.48295898 46.89187012 -12.60888672 46.88647461 C-10 47 -10 47 -4 48 C-3.67 41.07 -3.34 34.14 -3 27 C-5.97 27 -8.94 27 -12 27 C-12 26.01 -12 25.02 -12 24 C-13.32 24 -14.64 24 -16 24 C-16 23.34 -16 22.68 -16 22 C-17.98 22.33 -19.96 22.66 -22 23 C-21.67 18.38 -21.34 13.76 -21 9 C-21.99 9.33 -22.98 9.66 -24 10 C-24.66 13.96 -25.32 17.92 -26 22 C-26.99 22 -27.98 22 -29 22 C-29.33 20.35 -29.66 18.7 -30 17 C-30.99 17.33 -31.98 17.66 -33 18 C-32.67 16.02 -32.34 14.04 -32 12 C-31.34 12 -30.68 12 -30 12 C-30 10.02 -30 8.04 -30 6 C-29.34 6 -28.68 6 -28 6 C-27.67 4.68 -27.34 3.36 -27 2 C-25.35 2.33 -23.7 2.66 -22 3 C-22 3.66 -22 4.32 -22 5 C-19.03 5.495 -19.03 5.495 -16 6 C-15.67 6.99 -15.34 7.98 -15 9 C-14.34 8.34 -13.68 7.68 -13 7 C-10.3984375 6.8046875 -10.3984375 6.8046875 -7.375 6.875 C-5.87066406 6.90207031 -5.87066406 6.90207031 -4.3359375 6.9296875 C-3.56507812 6.95289063 -2.79421875 6.97609375 -2 7 C-1.67 7.66 -1.34 8.32 -1 9 C-0.67 6.03 -0.34 3.06 0 0 Z " fill="#EBFCFB" transform="translate(111,184)"/>
<path d="M0 0 C1 2 1 2 -0.0625 5.5 C-1.4527155 8.62313529 -1.76353752 8.90068576 -5.125 10.3125 C-6.548125 10.6528125 -6.548125 10.6528125 -8 11 C-9.39560045 13.79120091 -9.21808288 16.20205692 -9.31640625 19.3203125 C-9.35830078 20.57714844 -9.40019531 21.83398438 -9.44335938 23.12890625 C-9.48267578 24.44761719 -9.52199219 25.76632813 -9.5625 27.125 C-9.60569512 28.46485751 -9.64930973 29.80470156 -9.69335938 31.14453125 C-9.79970981 34.42957815 -9.90173808 37.71470281 -10 41 C-13.3 41 -16.6 41 -20 41 C-20 27.8 -20 14.6 -20 1 C-17.36 1 -14.72 1 -12 1 C-11.67 1.99 -11.34 2.98 -11 4 C-10.484375 3.34 -9.96875 2.68 -9.4375 2 C-6.20004245 -0.65637543 -4.07447719 -0.31342132 0 0 Z " fill="#3DA22D" transform="translate(195,199)"/>
<path d="M0 0 C1.47411342 2.1117385 2.57445876 4.01387774 3.6875 6.3125 C4.02346191 6.9938501 4.35942383 7.6752002 4.70556641 8.37719727 C11.49603503 22.87277541 19.83417997 42.73349052 19 59 C16.72157862 56.72157862 16.14473625 55.06322408 15 52.0625 C8.33845295 35.8430811 -0.76205301 21.32028375 -10.76000977 6.96679688 C-12 5 -12 5 -13 2 C-11.5882217 1.46605821 -10.17029756 0.94834896 -8.75 0.4375 C-7.96109375 0.14746094 -7.1721875 -0.14257812 -6.359375 -0.44140625 C-3.62702066 -1.08830471 -2.51279407 -1.27924062 0 0 Z " fill="#3FA230" transform="translate(36,175)"/>
<path d="M0 0 C6.30818278 -0.35706695 6.30818278 -0.35706695 8.9375 1 C10.71953537 4.35441952 10.29858742 7.23779845 10 11 C9.34 11.66 8.68 12.32 8 13 C5.375 12.625 5.375 12.625 3 12 C2.87882813 12.721875 2.75765625 13.44375 2.6328125 14.1875 C1.80575777 17.86329878 0.29251726 21.07858259 -1.2578125 24.5 C-2.66177281 29.22912946 -0.80158784 32.49603041 1 37 C-4.94 37.495 -4.94 37.495 -11 38 C-13.67933425 33.98099863 -13.59266949 30.64557098 -13 26 C-11.84653999 21.876994 -10.30618307 17.96012696 -8.6875 14 C-8.28337891 12.95199219 -7.87925781 11.90398437 -7.46289062 10.82421875 C-5.18745791 5.11898746 -5.18745791 5.11898746 -4 3 C-3.01 2.67 -2.02 2.34 -1 2 C-0.67 1.34 -0.34 0.68 0 0 Z " fill="#42A233" transform="translate(141,189)"/>
<path d="M0 0 C0.76183594 0.01804688 1.52367187 0.03609375 2.30859375 0.0546875 C3.05238281 0.07789063 3.79617188 0.10109375 4.5625 0.125 C5.8825 0.125 7.2025 0.125 8.5625 0.125 C12.22916667 0.125 15.89583333 0.125 19.5625 0.125 C19.5625 11.675 19.5625 23.225 19.5625 35.125 C17.22916667 35.125 14.89583333 35.125 12.5625 35.125 C12.5625 34.465 12.5625 33.805 12.5625 33.125 C12.005625 33.3415625 11.44875 33.558125 10.875 33.78125 C5.53220192 35.7306493 1.25245814 36.71361636 -4.4375 36.125 C-7.09101279 34.49865345 -7.35256162 33.45703185 -8.125 30.4375 C-8.228125 29.674375 -8.33125 28.91125 -8.4375 28.125 C-6.9834375 28.6509375 -6.9834375 28.6509375 -5.5 29.1875 C-0.36835322 30.65815487 4.85910613 30.24626705 9.78515625 28.203125 C11.74522757 27.26476882 11.74522757 27.26476882 12.3125 25.125 C12.88298992 18.27912101 12.96607372 12.65170017 10.5625 6.125 C9.51449219 6.08761719 8.46648437 6.05023438 7.38671875 6.01171875 C6.00777695 5.94605485 4.62887229 5.87960765 3.25 5.8125 C2.55970703 5.78994141 1.86941406 5.76738281 1.15820312 5.74414062 C-3.99424183 5.4703392 -3.99424183 5.4703392 -6.41796875 3.58203125 C-6.75441406 3.10121094 -7.09085937 2.62039062 -7.4375 2.125 C-4.27861187 0.01907458 -3.5878785 -0.10890694 0 0 Z " fill="#2A9EB5" transform="translate(305.4375,201.875)"/>
<path d="M0 0 C0.99 0.33 1.98 0.66 3 1 C3.65367911 14.7635769 2.24502443 28.10146895 0.51074219 41.72802734 C0.3765538 42.78372421 0.3765538 42.78372421 0.23965454 43.86074829 C0.06316396 45.2490104 -0.11408916 46.63717579 -0.29214478 48.02523804 C-0.98109315 53.52202224 -1.42118478 59.01688037 -1.75610352 64.54541016 C-2 67 -2 67 -3 69 C2.61 69 8.22 69 14 69 C14 69.66 14 70.32 14 71 C18.29 71.33 22.58 71.66 27 72 C26.67 72.66 26.34 73.32 26 74 C14.62364644 74.30700804 3.80412078 73.82645944 -7 70 C-7.495 67.03 -7.495 67.03 -8 64 C-7.34 64 -6.68 64 -6 64 C-6.33 63.34 -6.66 62.68 -7 62 C-7.91322019 49.53348257 -5.47738918 37.24188552 -3.0402832 25.08032227 C-1.84607326 18.81474676 -1.47485427 12.59588996 -1.2109375 6.23046875 C-1 3 -1 3 0 0 Z " fill="#339DB3" transform="translate(72,164)"/>
<path d="M0 0 C3.27126315 2.6704189 4.65752177 4.10805716 5.40234375 8.22265625 C5.59834642 12.91888032 5.05875178 16.2615256 2 20 C-2.01858595 22.6790573 -5.27641721 22.69610694 -10 22 C-12.87029869 20.20606332 -14.49131638 19.01736724 -16 16 C-16.61766523 10.52042702 -17.04431644 6.37410058 -13.625 1.875 C-8.92779982 -1.48014298 -5.54277898 -1.51948596 0 0 Z " fill="#F9FDFC" transform="translate(265,209)"/>
<path d="M0 0 C5.53846154 3.07692308 5.53846154 3.07692308 7 6 C7.57591852 11.03517333 8.09027582 16.33355627 5.125 20.6875 C1.35396409 23.47806657 -0.92946655 23.94156643 -5.55078125 23.64453125 C-9.15126738 22.6970349 -10.86955799 21.06234033 -13 18.06640625 C-14.7949776 14.35725332 -14.65137322 12.10365129 -14 8 C-10.49743745 1.47798698 -7.45959587 -0.75860297 0 0 Z " fill="#F2FBFB" transform="translate(310,208)"/>
<path d="M0 0 C3.3 0 6.6 0 10 0 C10 12.87 10 25.74 10 39 C6.7 39 3.4 39 0 39 C0 26.13 0 13.26 0 0 Z " fill="#3CA32C" transform="translate(200,200)"/>
<path d="M0 0 C4.55995619 17.841382 8.63208878 35.45872901 8 54 C6.24670497 51.37005745 5.27683053 49.32313298 4.21240234 46.39257812 C3.87220062 45.46151245 3.5319989 44.53044678 3.18148804 43.57116699 C2.63919052 42.06640808 2.63919052 42.06640808 2.0859375 40.53125 C1.71143463 39.49939575 1.33693176 38.4675415 0.95108032 37.40441895 C0.16068077 35.22297969 -0.62764782 33.04078913 -1.4140625 30.85791016 C-2.62105666 27.51093482 -3.83743697 24.16747557 -5.0546875 20.82421875 C-5.8208824 18.70593522 -6.58652613 16.58745222 -7.3515625 14.46875 C-7.71714264 13.46557739 -8.08272278 12.46240479 -8.4593811 11.42883301 C-8.7932785 10.49776733 -9.1271759 9.56670166 -9.47119141 8.60742188 C-9.76716217 7.78818237 -10.06313293 6.96894287 -10.36807251 6.12487793 C-11 4 -11 4 -11 1 C-7.25818125 0.11957206 -3.83583759 -0.04250236 0 0 Z " fill="#3AA32A" transform="translate(48,166)"/>
<path d="M0 0 C1.37478516 0.01740234 1.37478516 0.01740234 2.77734375 0.03515625 C3.69644531 0.04417969 4.61554688 0.05320313 5.5625 0.0625 C6.27277344 0.07410156 6.98304688 0.08570313 7.71484375 0.09765625 C10.53037994 6.78766924 13.30469097 13.49432707 16.02734375 20.22265625 C16.29369629 20.87371338 16.56004883 21.52477051 16.83447266 22.19555664 C18.71484375 26.86685279 18.71484375 26.86685279 18.71484375 29.09765625 C17.72484375 29.09765625 16.73484375 29.09765625 15.71484375 29.09765625 C16.04484375 27.77765625 16.37484375 26.45765625 16.71484375 25.09765625 C15.72484375 25.42765625 14.73484375 25.75765625 13.71484375 26.09765625 C13.71484375 24.77765625 13.71484375 23.45765625 13.71484375 22.09765625 C12.39484375 22.09765625 11.07484375 22.09765625 9.71484375 22.09765625 C10.04484375 23.74765625 10.37484375 25.39765625 10.71484375 27.09765625 C11.70484375 27.42765625 12.69484375 27.75765625 13.71484375 28.09765625 C11.83984375 32.97265625 11.83984375 32.97265625 10.71484375 34.09765625 C8.69520176 34.17009678 6.67317251 34.18142813 4.65234375 34.16015625 C2.99525391 34.14662109 2.99525391 34.14662109 1.3046875 34.1328125 C0.45003906 34.12121094 -0.40460938 34.10960937 -1.28515625 34.09765625 C-1.61515625 34.75765625 -1.94515625 35.41765625 -2.28515625 36.09765625 C-4.28515625 33.09765625 -4.28515625 33.09765625 -4.0703125 30.8359375 C-3.13330686 27.56807206 -1.96867681 24.44813151 -0.72265625 21.28515625 C-0.04009766 19.54298828 -0.04009766 19.54298828 0.65625 17.765625 C1.00558594 16.88519531 1.35492188 16.00476563 1.71484375 15.09765625 C2.51921875 15.11828125 3.32359375 15.13890625 4.15234375 15.16015625 C6.6483926 15.39399246 6.6483926 15.39399246 7.71484375 14.09765625 C7.94402617 10.08108482 7.94402617 10.08108482 7.71484375 6.09765625 C4.95261097 3.33542347 2.50777758 3.51909334 -1.28515625 3.09765625 C-1.61515625 4.08765625 -1.94515625 5.07765625 -2.28515625 6.09765625 C-2.94515625 6.09765625 -3.60515625 6.09765625 -4.28515625 6.09765625 C-3.21536826 0.1374089 -3.21536826 0.1374089 0 0 Z " fill="#449D37" transform="translate(142.28515625,185.90234375)"/>
<path d="M0 0 C2.02316457 3.56076964 2.97885842 7.30214832 3.9375 11.25 C4.11007324 11.95817871 4.28264648 12.66635742 4.46044922 13.39599609 C9.13589292 32.93251709 10.95091793 52.4223587 11.65869141 72.4753418 C11.70582275 73.71731323 11.70582275 73.71731323 11.75390625 74.984375 C11.77783447 75.71366211 11.8017627 76.44294922 11.82641602 77.19433594 C11.90045555 79.10055434 11.90045555 79.10055434 13 81 C11.515 80.505 11.515 80.505 10 80 C7.14457526 74.28915053 5.92863497 67.72622005 4.375 61.5625 C0.15158325 45.49601427 -4.81993138 29.5196218 -13 15 C-14.65 15 -16.3 15 -18 15 C-17.67 14.34 -17.34 13.68 -17 13 C-15.02 13 -13.04 13 -11 13 C-11.33 11.02 -11.66 9.04 -12 7 C-10.23503203 9.64745196 -9.27376206 11.70064741 -8.21240234 14.6550293 C-7.87220062 15.59577805 -7.5319989 16.53652679 -7.18148804 17.50578308 C-6.63919052 19.02465874 -6.63919052 19.02465874 -6.0859375 20.57421875 C-5.71143463 21.61318802 -5.33693176 22.65215729 -4.95108032 23.72261047 C-3.7552523 27.04288704 -2.56506538 30.36515416 -1.375 33.6875 C-0.56547474 35.93828436 0.24441658 38.1889371 1.0546875 40.43945312 C3.04070924 45.95811488 5.02210264 51.47842161 7 57 C7.07865713 49.9898702 7.07865713 49.9898702 6.484375 43.01171875 C6.36956787 42.14957764 6.25476074 41.28743652 6.13647461 40.39916992 C6.00893799 39.50431885 5.88140137 38.60946777 5.75 37.6875 C5.61795166 36.74559814 5.48590332 35.80369629 5.34985352 34.83325195 C4.3724711 28.08723135 3.23195293 21.37977291 1.9375 14.6875 C1.77540039 13.82793701 1.61330078 12.96837402 1.44628906 12.08276367 C1.03365828 10.03990651 0.52598922 8.01664694 0 6 C-0.66 5.67 -1.32 5.34 -2 5 C-1.34 3.35 -0.68 1.7 0 0 Z " fill="#C0EEB6" transform="translate(48,160)"/>
<path d="M0 0 C9.07160361 -0.12898015 18.1215741 0.03890782 27.1875 0.375 C28.69292358 0.4212854 28.69292358 0.4212854 30.22875977 0.46850586 C31.17807373 0.5072583 32.1273877 0.54601074 33.10546875 0.5859375 C33.95262451 0.6173584 34.79978027 0.6487793 35.67260742 0.68115234 C38.15180266 1.02079663 39.84282125 1.7595989 42 3 C42 3.66 42 4.32 42 5 C43.32 5 44.64 5 46 5 C45.40546697 24.00455581 45.40546697 24.00455581 42 32 C41.67 32 41.34 32 41 32 C40.972807 30.41676312 40.95351694 28.83338938 40.9375 27.25 C40.92589844 26.36828125 40.91429687 25.4865625 40.90234375 24.578125 C40.9926452 22.19416671 41.42553605 20.29785582 42 18 C42.06624507 16.25113019 42.08552595 14.49997252 42.0625 12.75 C42.041875 11.1825 42.02125 9.615 42 8 C38.04 8 34.08 8 30 8 C30 7.34 30 6.68 30 6 C28.27136719 6.02900391 28.27136719 6.02900391 26.5078125 6.05859375 C22.23545694 6.05765312 18.10364484 5.63691129 13.875 5.0625 C13.19824219 4.97548828 12.52148438 4.88847656 11.82421875 4.79882812 C7.86745538 4.28222943 3.93182603 3.6798017 0 3 C0 2.01 0 1.02 0 0 Z " fill="#2C9CB4" transform="translate(74,158)"/>
<path d="M0 0 C1.0725 0.12375 2.145 0.2475 3.25 0.375 C3.58 2.025 3.91 3.675 4.25 5.375 C3.280625 5.189375 2.31125 5.00375 1.3125 4.8125 C0.301875 4.668125 -0.70875 4.52375 -1.75 4.375 C-3.33272601 5.95772601 -3.09735747 7.75534003 -3.3125 9.9375 C-3.456875 11.401875 -3.60125 12.86625 -3.75 14.375 C0.705 13.88 0.705 13.88 5.25 13.375 C5.58 11.065 5.91 8.755 6.25 6.375 C6.91 6.375 7.57 6.375 8.25 6.375 C7.70974917 18.50269965 6.09178127 30.38349656 4.25 42.375 C-2.37680802 42.5009916 -8.79907781 42.18468093 -15.375 41.375 C-16.18839844 41.27960938 -17.00179687 41.18421875 -17.83984375 41.0859375 C-19.81050691 40.85409478 -21.78035093 40.61530577 -23.75 40.375 C-23.75 40.045 -23.75 39.715 -23.75 39.375 C-20.37501842 39.34577354 -17.00006979 39.32812532 -13.625 39.3125 C-12.19800781 39.29993164 -12.19800781 39.29993164 -10.7421875 39.28710938 C-9.8140625 39.28388672 -8.8859375 39.28066406 -7.9296875 39.27734375 C-7.08132324 39.27210693 -6.23295898 39.26687012 -5.35888672 39.26147461 C-2.75 39.375 -2.75 39.375 3.25 40.375 C3.58 33.445 3.91 26.515 4.25 19.375 C1.28 19.375 -1.69 19.375 -4.75 19.375 C-7.68054552 16.53325889 -7.73801782 14.4828396 -8.1875 10.4375 C-7.92357949 4.6422454 -6.13326797 0.6133268 0 0 Z " fill="#D3F5F6" transform="translate(103.75,191.625)"/>
<path d="M0 0 C1.670625 0.061875 1.670625 0.061875 3.375 0.125 C4.375 2.125 4.375 2.125 3.3125 5.625 C1.9222845 8.74813529 1.61146248 9.02568576 -1.75 10.4375 C-3.173125 10.7778125 -3.173125 10.7778125 -4.625 11.125 C-6.02060045 13.91620091 -5.84308288 16.32705692 -5.94140625 19.4453125 C-5.98330078 20.70214844 -6.02519531 21.95898438 -6.06835938 23.25390625 C-6.10767578 24.57261719 -6.14699219 25.89132813 -6.1875 27.25 C-6.23069512 28.58985751 -6.27430973 29.92970156 -6.31835938 31.26953125 C-6.42470981 34.55457815 -6.52673808 37.83970281 -6.625 41.125 C-9.925 41.125 -13.225 41.125 -16.625 41.125 C-16.625 27.925 -16.625 14.725 -16.625 1.125 C-13.985 1.125 -11.345 1.125 -8.625 1.125 C-8.625 1.455 -8.625 1.785 -8.625 2.125 C-10.935 2.125 -13.245 2.125 -15.625 2.125 C-15.50627168 6.16367161 -15.38199341 10.20213142 -15.25268555 14.24047852 C-15.2095116 15.61282776 -15.16782499 16.98522467 -15.12768555 18.35766602 C-15.06955608 20.33622068 -15.0055429 22.3145997 -14.94140625 24.29296875 C-14.90474854 25.48172607 -14.86809082 26.6704834 -14.83032227 27.89526367 C-14.64953589 30.73904847 -14.26690592 33.35406805 -13.625 36.125 C-12.305 36.455 -10.985 36.785 -9.625 37.125 C-9.64856567 36.22575806 -9.64856567 36.22575806 -9.67260742 35.30834961 C-9.7354413 32.55983123 -9.77414235 29.81146458 -9.8125 27.0625 C-9.85020508 25.64807617 -9.85020508 25.64807617 -9.88867188 24.20507812 C-9.9495483 18.38123328 -9.5307014 14.22521715 -6.625 9.125 C-3.625 7.125 -3.625 7.125 -0.625 7.125 C-0.625 6.135 -0.625 5.145 -0.625 4.125 C-1.945 4.455 -3.265 4.785 -4.625 5.125 C-4.955 4.135 -5.285 3.145 -5.625 2.125 C-3.625 0.125 -3.625 0.125 0 0 Z " fill="#579F4C" transform="translate(191.625,198.875)"/>
<path d="M0 0 C1.8125 0.125 1.8125 0.125 4 1 C8.01856183 6.31024241 7.67751333 12.641798 7 19 C6.23860817 21.36294018 5.38678843 22.91981736 4 25 C3.34 25 2.68 25 2 25 C2 26.32 2 27.64 2 29 C-4.24029776 31.88902674 -9.23263205 32.67297386 -16 31 C-16.66 30.34 -17.32 29.68 -18 29 C-15.73050898 28.32844651 -13.4596039 27.6626037 -11.1875 27 C-9.29064453 26.443125 -9.29064453 26.443125 -7.35546875 25.875 C-4 25 -4 25 -1 25 C0.20427426 19.12916299 0.6437952 13.14744319 -0.5625 7.25 C-1.08281322 4.57410343 -0.6734045 2.61879527 0 0 Z " fill="#289EB6" transform="translate(271,206)"/>
<path d="M0 0 C4.66695787 8.36534552 1.27817043 19.71643708 0.0625 28.8125 C-2.28662277 46.15810015 -2.28662277 46.15810015 -3.1875 63.625 C-3.20167969 64.60726562 -3.21585938 65.58953125 -3.23046875 66.6015625 C-3.2388704 69.18528258 -3.2388704 69.18528258 -1 71 C1.31861822 71.55555514 1.31861822 71.55555514 4.0078125 71.8515625 C4.99394531 71.98046875 5.98007813 72.109375 6.99609375 72.2421875 C8.54490234 72.43167969 8.54490234 72.43167969 10.125 72.625 C11.16527344 72.7590625 12.20554687 72.893125 13.27734375 73.03125 C15.85069334 73.36177197 18.42479146 73.6843456 21 74 C21 74.33 21 74.66 21 75 C17.62546102 75.14611313 14.25174234 75.23433467 10.875 75.3125 C9.92367187 75.35439453 8.97234375 75.39628906 7.9921875 75.43945312 C0.02144793 75.57783402 0.02144793 75.57783402 -3.6171875 73.04296875 C-7.98082661 67.47038701 -7.19395191 60.66144755 -6.40226746 53.88600159 C-6.29401138 53.04834763 -6.18575531 52.21069366 -6.07421875 51.34765625 C-5.96656693 50.44865097 -5.8589151 49.54964569 -5.7480011 48.62339783 C-5.4040793 45.7685025 -5.04622279 42.91556939 -4.6875 40.0625 C-4.45802367 38.18436192 -4.22950101 36.30610707 -4.00195312 34.42773438 C-3.66513065 31.65042468 -3.3273727 28.87325902 -2.98532104 26.09658813 C-1.91557884 17.4057965 -0.94439031 8.70519496 0 0 Z " fill="#C6F4E5" transform="translate(67,165)"/>
<path d="M0 0 C0.33 0 0.66 0 1 0 C1.66 2.97 2.32 5.94 3 9 C3.66 8.67 4.32 8.34 5 8 C6.66565749 7.84777027 8.33656496 7.75082785 10.0078125 7.68359375 C10.99394531 7.64169922 11.98007813 7.59980469 12.99609375 7.55664062 C14.02863281 7.51732422 15.06117188 7.47800781 16.125 7.4375 C17.16527344 7.39431641 18.20554688 7.35113281 19.27734375 7.30664062 C21.85142528 7.2003712 24.42560508 7.09833417 27 7 C27 7.66 27 8.32 27 9 C27.66 9.33 28.32 9.66 29 10 C21.74 10 14.48 10 7 10 C6.67 11.32 6.34 12.64 6 14 C5.07097847 16.36828288 4.02953585 18.67235373 3 21 C-0.3 21 -3.6 21 -7 21 C-6.38169051 15.97525707 -4.87023224 11.75279506 -2.9375 7.125 C-2.65583984 6.43664062 -2.37417969 5.74828125 -2.08398438 5.0390625 C-1.39484734 3.35710091 -0.69819202 1.67822303 0 0 Z " fill="#439E35" transform="translate(127,218)"/>
<path d="M0 0 C0.66 0 1.32 0 2 0 C3.26622184 6.84298609 4.45343249 13.69164944 5.53515625 20.56640625 C5.88525281 22.99672243 5.88525281 22.99672243 7 25 C7.66 20.71 8.32 16.42 9 12 C9.33 12 9.66 12 10 12 C9.63119067 18.58033492 9.25077333 25.14352798 8.453125 31.6875 C8.35821777 32.46818848 8.26331055 33.24887695 8.16552734 34.05322266 C7.97707261 35.55927689 7.77999476 37.06428679 7.57275391 38.56787109 C6.92451756 43.75021957 6.77549094 48.88348833 8 54 C10.81399869 57.3105867 12.5422149 57.90994391 16.8125 58.75 C17.864375 58.8325 18.91625 58.915 20 59 C20 59.66 20 60.32 20 61 C18.06318839 61.08107583 16.1254066 61.13922475 14.1875 61.1875 C13.10855469 61.22230469 12.02960938 61.25710937 10.91796875 61.29296875 C8 61 8 61 6.35668945 59.91210938 C4.3270203 57.05150674 4.51071284 54.59293163 4.375 51.11328125 C4.34296478 50.42694107 4.31092957 49.74060089 4.27792358 49.03346252 C4.20959444 47.55891792 4.14715977 46.08409067 4.09002686 44.60906982 C3.93903324 40.75724829 3.74150104 36.90801083 3.5390625 33.05859375 C3.49899078 32.28960754 3.45891907 31.52062134 3.41763306 30.72833252 C2.84662582 20.42179524 1.4952023 10.20872595 0 0 Z " fill="#4D9B41" transform="translate(54,181)"/>
<path d="M0 0 C3.45807054 1.40231735 4.77785488 2.81715524 6.5625 6.0625 C8.37926031 9.50632795 8.37926031 9.50632795 12 11 C12.66 9.68 13.32 8.36 14 7 C16.64057555 14.62953181 19.17891392 22.27373204 21.3125 30.0625 C21.80169922 31.84333984 21.80169922 31.84333984 22.30078125 33.66015625 C22.97576899 36.8842597 23.13486781 39.71821654 23 43 C20.72157862 40.72157862 20.14473625 39.06322408 19 36.0625 C13.90265056 23.5233229 7.22843564 11.43033116 0 0 Z " fill="#4A9D3E" transform="translate(32,191)"/>
<path d="M0 0 C3.3 0 6.6 0 10 0 C10 0.99 10 1.98 10 3 C7.36 3 4.72 3 2 3 C2 19.17 2 35.34 2 52 C3.98 52 5.96 52 8 52 C8 47.05 8 42.1 8 37 C8.66 37 9.32 37 10 37 C10 42.61 10 48.22 10 54 C6.7 54 3.4 54 0 54 C0 36.18 0 18.36 0 0 Z " fill="#56A3AE" transform="translate(239,200)"/>
<path d="M0 0 C1.65 0.33 3.3 0.66 5 1 C5 13.87 5 26.74 5 40 C8.3 40 11.6 40 15 40 C15 40.33 15 40.66 15 41 C11.37 41 7.74 41 4 41 C3.07583782 37.30335127 2.8040887 34.2713592 2.68359375 30.484375 C2.64169922 29.23398438 2.59980469 27.98359375 2.55664062 26.6953125 C2.51732422 25.39335937 2.47800781 24.09140625 2.4375 22.75 C2.37272461 20.77386719 2.37272461 20.77386719 2.30664062 18.7578125 C2.20058083 15.50531212 2.09851976 12.25273608 2 9 C-0.97310359 9.822506 -0.97310359 9.822506 -4 11 C-5.32481546 13.39529669 -5.32481546 13.39529669 -6 16 C-6.66 16.99 -7.32 17.98 -8 19 C-8.36576054 21.31923274 -8.36576054 21.31923274 -8.4140625 23.88671875 C-8.45273438 24.82451172 -8.49140625 25.76230469 -8.53125 26.72851562 C-8.5621875 27.70498047 -8.593125 28.68144531 -8.625 29.6875 C-8.66367188 30.67556641 -8.70234375 31.66363281 -8.7421875 32.68164062 C-8.83645867 35.12090707 -8.92206218 37.56016595 -9 40 C-9.33 40 -9.66 40 -10 40 C-10.08706286 35.58345745 -10.14041378 31.16713543 -10.1875 26.75 C-10.21263672 25.49574219 -10.23777344 24.24148437 -10.26367188 22.94921875 C-10.27333984 21.74394531 -10.28300781 20.53867188 -10.29296875 19.296875 C-10.3086792 18.18666992 -10.32438965 17.07646484 -10.34057617 15.93261719 C-9.96137436 12.66740413 -9.32889322 11.28994621 -7 9 C-4.3125 8.75 -4.3125 8.75 -2 9 C-1.34 6.03 -0.68 3.06 0 0 Z " fill="#D9F5D5" transform="translate(195,199)"/>
<path d="M0 0 C3.3 0 6.6 0 10 0 C10 12.87 10 25.74 10 39 C6.7 39 3.4 39 0 39 C0 38.01 0 37.02 0 36 C-0.928125 36.66 -1.85625 37.32 -2.8125 38 C-7.67017754 40.76453193 -12.5536509 40.85048094 -18 40 C-20.4509748 38.91067787 -21.94783092 37.77484894 -24 36 C-23.01 35.505 -23.01 35.505 -22 35 C-21.13375 35.309375 -20.2675 35.61875 -19.375 35.9375 C-14.84326731 37.36415659 -10.28958386 38.04666691 -5.8125 36 C-4.9153125 35.505 -4.9153125 35.505 -4 35 C-1.25 34.875 -1.25 34.875 1 35 C1 35.66 1 36.32 1 37 C2.485 36.505 2.485 36.505 4 36 C5.485 36.495 5.485 36.495 7 37 C7.33 25.45 7.66 13.9 8 2 C5.69 2.33 3.38 2.66 1 3 C0.67 2.01 0.34 1.02 0 0 Z " fill="#489AAA" transform="translate(317,200)"/>
<path d="M0 0 C1.63507051 0.22855824 3.25979444 0.53323187 4.875 0.875 C6.20144531 1.14957031 6.20144531 1.14957031 7.5546875 1.4296875 C10 2 10 2 13 3 C13.33 2.67 13.66 2.34 14 2 C15.68608966 1.92794489 17.37500659 1.91613932 19.0625 1.9375 C19.98160156 1.94652344 20.90070313 1.95554688 21.84765625 1.96484375 C22.55792969 1.97644531 23.26820313 1.98804688 24 2 C24 2.33 24 2.66 24 3 C21.03 3 18.06 3 15 3 C15.99 5.97 16.98 8.94 18 12 C15.69 11.67 13.38 11.34 11 11 C11 20.9 11 30.8 11 41 C10.01 41.495 10.01 41.495 9 42 C9 29.13 9 16.26 9 3 C5.7 3 2.4 3 -1 3 C-1.33 4.32 -1.66 5.64 -2 7 C-3.32 5.68 -4.64 4.36 -6 3 C-5.195625 2.690625 -4.39125 2.38125 -3.5625 2.0625 C-1.10919595 1.23664655 -1.10919595 1.23664655 0 0 Z " fill="#E3FCFC" transform="translate(318,197)"/>
<path d="M0 0 C1.15048828 0.02320313 1.15048828 0.02320313 2.32421875 0.046875 C4.3125 0.25 4.3125 0.25 6.3125 1.25 C6.3125 3.56 6.3125 5.87 6.3125 8.25 C4.3325 8.58 2.3525 8.91 0.3125 9.25 C-0.0175 11.56 -0.3475 13.87 -0.6875 16.25 C1.2925 16.25 3.2725 16.25 5.3125 16.25 C5.3125 18.89 5.3125 21.53 5.3125 24.25 C3.6625 24.25 2.0125 24.25 0.3125 24.25 C1.6325 23.92 2.9525 23.59 4.3125 23.25 C4.3125 21.6 4.3125 19.95 4.3125 18.25 C2.3325 18.25 0.3525 18.25 -1.6875 18.25 C-1.6875 14.95 -1.6875 11.65 -1.6875 8.25 C0.2925 7.59 2.2725 6.93 4.3125 6.25 C4.3125 4.93 4.3125 3.61 4.3125 2.25 C3.054375 2.37375 1.79625 2.4975 0.5 2.625 C-0.20769531 2.69460937 -0.91539062 2.76421875 -1.64453125 2.8359375 C-3.98738142 3.17665391 -3.98738142 3.17665391 -6.6875 5.25 C-7.23290583 7.60894964 -7.23290583 7.60894964 -7.3125 10.25 C-7.6080298 15.0910596 -7.6080298 15.0910596 -8.6875 17.25 C-10.0075 17.25 -11.3275 17.25 -12.6875 17.25 C-12.6875 19.23 -12.6875 21.21 -12.6875 23.25 C-11.6975 23.25 -10.7075 23.25 -9.6875 23.25 C-9.6875 33.81 -9.6875 44.37 -9.6875 55.25 C-6.7175 55.25 -3.7475 55.25 -0.6875 55.25 C-0.6875 55.58 -0.6875 55.91 -0.6875 56.25 C-3.9875 56.25 -7.2875 56.25 -10.6875 56.25 C-10.6875 45.69 -10.6875 35.13 -10.6875 24.25 C-11.6775 24.25 -12.6675 24.25 -13.6875 24.25 C-13.6875 21.61 -13.6875 18.97 -13.6875 16.25 C-12.3675 16.25 -11.0475 16.25 -9.6875 16.25 C-9.74550781 15.34636719 -9.80351562 14.44273437 -9.86328125 13.51171875 C-9.93095703 11.74248047 -9.93095703 11.74248047 -10 9.9375 C-10.05800781 8.76574219 -10.11601562 7.59398437 -10.17578125 6.38671875 C-9.6875 3.25 -9.6875 3.25 -7.4609375 1.34765625 C-4.71320728 0.26017429 -2.92747317 -0.09940486 0 0 Z " fill="#63A75A" transform="translate(227.6875,183.75)"/>
<path d="M0 0 C0.66 0 1.32 0 2 0 C3.0063655 2.43504509 4.00526413 4.87270864 5 7.3125 C5.28617188 8.00279297 5.57234375 8.69308594 5.8671875 9.40429688 C7.08910744 12.41545674 8 14.71886984 8 18 C3.38 18 -1.24 18 -6 18 C-5.14491137 13.72455684 -4.02456846 10.21621223 -2.4375 6.1875 C-1.75494141 4.44533203 -1.75494141 4.44533203 -1.05859375 2.66796875 C-0.70925781 1.78753906 -0.35992187 0.90710938 0 0 Z " fill="#F9FDF9" transform="translate(144,201)"/>
<path d="M0 0 C0.33 0 0.66 0 1 0 C3.91077304 14.59267551 6.50966534 29.04981683 6 44 C4.10786766 41.16180149 3.15124457 38.87702043 2.0546875 35.67578125 C1.70019531 34.64775391 1.34570312 33.61972656 0.98046875 32.56054688 C0.61566406 31.48869141 0.25085937 30.41683594 -0.125 29.3125 C-0.49753906 28.22904297 -0.87007812 27.14558594 -1.25390625 26.02929688 C-2.1731173 23.35415702 -3.08831688 20.67771279 -4 18 C-3.01 18.33 -2.02 18.66 -1 19 C-0.67 19.99 -0.34 20.98 0 22 C0.66 22.33 1.32 22.66 2 23 C1.69128878 21.20767663 1.37790936 19.41615679 1.0625 17.625 C0.88847656 16.62726563 0.71445312 15.62953125 0.53515625 14.6015625 C0.12287938 12.03090344 0.12287938 12.03090344 -1 10 C-1.13357453 6.32670036 -1.1671568 3.50147041 0 0 Z " fill="#529E46" transform="translate(50,176)"/>
<path d="M0 0 C1.23713745 0.0762561 1.23713745 0.0762561 2.49926758 0.15405273 C9.70649452 0.63992537 16.81262319 1.55283473 23.9375 2.75 C23.9375 3.41 23.9375 4.07 23.9375 4.75 C25.5875 4.75 27.2375 4.75 28.9375 4.75 C28.9375 5.08 28.9375 5.41 28.9375 5.75 C23.14905656 5.85536416 17.61567768 5.44927255 11.875 4.75 C5.70822859 4.05914206 -0.4176836 3.51722841 -6.625 3.4375 C-7.82253906 3.42074219 -9.02007812 3.40398437 -10.25390625 3.38671875 C-11.64416016 3.56654297 -11.64416016 3.56654297 -13.0625 3.75 C-15.02526032 6.69414048 -15.31726379 7.55204933 -15.5625 10.875 C-15.7275 12.15375 -15.8925 13.4325 -16.0625 14.75 C-17.0525 15.245 -17.0525 15.245 -18.0625 15.75 C-18.11687607 14.16705218 -18.15546271 12.58355744 -18.1875 11 C-18.21070312 10.11828125 -18.23390625 9.2365625 -18.2578125 8.328125 C-18.03926792 5.44333656 -17.87100873 4.02298911 -16.0625 1.75 C-10.6288099 -0.49842349 -5.79313886 -0.41434293 0 0 Z " fill="#E2FBFC" transform="translate(86.0625,153.25)"/>
<path d="M0 0 C2.35210784 2.11689705 2.91810953 3.44041515 3.375 6.5625 C3 9 3 9 1.9375 10.8125 C-1.05550269 12.646921 -3.57816663 12.31107576 -7 12 C-9 10 -9 10 -9.3125 6.5625 C-9 3 -9 3 -7.875 1.0625 C-5.07837528 -0.52225401 -3.1506804 -0.45947423 0 0 Z " fill="#4A9C3E" transform="translate(208,184)"/>
<path d="M0 0 C3 0.1875 3 0.1875 5 1.1875 C5.02693575 3.31243141 5.04636628 5.43745912 5.0625 7.5625 C5.07410156 8.74585938 5.08570312 9.92921875 5.09765625 11.1484375 C5 14.1875 5 14.1875 4 16.1875 C3.01 16.1875 2.02 16.1875 1 16.1875 C1.33 11.5675 1.66 6.9475 2 2.1875 C1.01 2.5175 0.02 2.8475 -1 3.1875 C-1.66 7.1475 -2.32 11.1075 -3 15.1875 C-3.99 15.1875 -4.98 15.1875 -6 15.1875 C-6.33 13.5375 -6.66 11.8875 -7 10.1875 C-7.99 10.5175 -8.98 10.8475 -10 11.1875 C-10 9.8675 -10 8.5475 -10 7.1875 C-8.35 7.1875 -6.7 7.1875 -5 7.1875 C-5.04125 6.40375 -5.0825 5.62 -5.125 4.8125 C-4.93716236 0.86790952 -3.8645071 0.24153169 0 0 Z " fill="#55994B" transform="translate(88,190.8125)"/>
<path d="M0 0 C3.3 0 6.6 0 10 0 C10 12.87 10 25.74 10 39 C6.7 39 3.4 39 0 39 C0 26.13 0 13.26 0 0 Z M1 1 C0.92583933 5.64473982 0.87139385 10.28913499 0.83520508 14.93432617 C0.82011906 16.51446536 0.7996475 18.09456269 0.77368164 19.67456055 C0.73728874 21.94590585 0.72027238 24.21669759 0.70703125 26.48828125 C0.69154739 27.19463211 0.67606354 27.90098297 0.66011047 28.6287384 C0.64525763 32.58976038 0.64525763 32.58976038 2.51831055 35.96948242 C3.00726807 36.30955322 3.49622559 36.64962402 4 37 C6.61074973 36.03758121 6.61074973 36.03758121 9 34 C9.45760061 31.28332853 9.58717896 29.19522255 9.48828125 26.48828125 C9.48120651 25.76005661 9.47413177 25.03183197 9.46684265 24.28153992 C9.43887081 21.95747763 9.3761365 19.6358327 9.3125 17.3125 C9.28742031 15.73636295 9.26460655 14.16018809 9.24414062 12.58398438 C9.18903626 8.72172602 9.10275228 4.86127268 9 1 C6.36 1 3.72 1 1 1 Z " fill="#68A95F" transform="translate(200,200)"/>
<path d="M0 0 C4.52018155 2.4966119 7.8427765 5.248053 10.1875 9.9375 C11.71635618 17.44279399 11.74306085 23.93496256 8.04296875 30.75390625 C6.875 32.3125 6.875 32.3125 3.875 34.3125 C3.875 30.3125 3.875 30.3125 5.3125 28.75 C5.828125 28.275625 6.34375 27.80125 6.875 27.3125 C8.87842746 21.30221763 8.67395277 14.55717683 6.5625 8.625 C5.01696235 6.03763673 5.01696235 6.03763673 1.875 5.3125 C1.875 4.3225 1.875 3.3325 1.875 2.3125 C-1.34807155 1.36767524 -4.33308753 1.11726592 -7.6875 1.0625 C-8.63753906 1.03671875 -9.58757812 1.0109375 -10.56640625 0.984375 C-13.49977202 1.36056237 -14.33665852 2.02438633 -16.125 4.3125 C-17.115 3.9825 -18.105 3.6525 -19.125 3.3125 C-14.04029825 -2.57504939 -6.86351615 -3.19263369 0 0 Z " fill="#4D9BAC" transform="translate(269.125,200.6875)"/>
<path d="M0 0 C1.65219011 2.47828517 2.60630093 4.33572833 3.61987305 7.07250977 C3.92326096 7.88667862 4.22664886 8.70084747 4.53923035 9.53968811 C4.86015152 10.4147551 5.18107269 11.28982208 5.51171875 12.19140625 C5.8442012 13.0924559 6.17668365 13.99350555 6.51924133 14.92185974 C7.21975231 16.82498652 7.9181208 18.7289031 8.61450195 20.63354492 C9.68574414 23.55770705 10.76929084 26.47711512 11.85351562 29.39648438 C12.5320075 31.24451373 13.20976718 33.09281211 13.88671875 34.94140625 C14.21371262 35.81849747 14.54070648 36.69558868 14.87760925 37.59925842 C15.17154068 38.41027512 15.46547211 39.22129181 15.76831055 40.05688477 C16.03097214 40.77175552 16.29363373 41.48662628 16.56425476 42.22315979 C17 44 17 44 16 46 C15.34 46 14.68 46 14 46 C13.79431396 45.34628418 13.58862793 44.69256836 13.37670898 44.01904297 C9.41426306 31.52421073 5.45219525 19.45264656 -1 8 C-2.65 8 -4.3 8 -6 8 C-5.67 7.34 -5.34 6.68 -5 6 C-3.02 6 -1.04 6 1 6 C0.67 4.02 0.34 2.04 0 0 Z " fill="#BEF2B9" transform="translate(36,167)"/>
<path d="M0 0 C1.60875 0.185625 1.60875 0.185625 3.25 0.375 C3.58 2.025 3.91 3.675 4.25 5.375 C3.280625 5.189375 2.31125 5.00375 1.3125 4.8125 C0.301875 4.668125 -0.70875 4.52375 -1.75 4.375 C-3.33272601 5.95772601 -3.09735747 7.75534003 -3.3125 9.9375 C-3.39628906 10.76378906 -3.48007813 11.59007812 -3.56640625 12.44140625 C-3.62699219 13.07949219 -3.68757813 13.71757812 -3.75 14.375 C-0.285 13.88 -0.285 13.88 3.25 13.375 C2.92 15.025 2.59 16.675 2.25 18.375 C0.76965236 17.89949439 -0.70925021 17.41948784 -2.1875 16.9375 C-3.01121094 16.67066406 -3.83492188 16.40382812 -4.68359375 16.12890625 C-6.75 15.375 -6.75 15.375 -7.75 14.375 C-8.14620122 9.69982561 -8.11484716 7.19225764 -6.1875 2.875 C-3.75 0.375 -3.75 0.375 0 0 Z " fill="#4D9442" transform="translate(103.75,191.625)"/>
<path d="M0 0 C0.66 0.33 1.32 0.66 2 1 C2.15844778 6.70412023 1.36864449 11.44915208 -2.625 15.75 C-3.07875 16.1625 -3.5325 16.575 -4 17 C-2.35 16.67 -0.7 16.34 1 16 C1 15.34 1 14.68 1 14 C1.66 14 2.32 14 3 14 C3.12375 13.030625 3.2475 12.06125 3.375 11.0625 C3.58125 10.051875 3.7875 9.04125 4 8 C4.66 7.67 5.32 7.34 6 7 C7.13350534 4.98330173 7.13350534 4.98330173 8 3 C9.39211215 7.17633644 7.9535579 8.78960515 6.0625 12.6875 C5.21365234 14.45673828 5.21365234 14.45673828 4.34765625 16.26171875 C3.90292969 17.16535156 3.45820313 18.06898438 3 19 C-0.3 19 -3.6 19 -7 19 C-6.33392561 14.59041892 -4.73375271 10.73427814 -2.9375 6.6875 C-2.65583984 6.04232422 -2.37417969 5.39714844 -2.08398438 4.73242188 C-1.3937257 3.15301642 -0.69746802 1.57623507 0 0 Z " fill="#479EAE" transform="translate(347,235)"/>
<path d="M0 0 C5.33333333 -0.35555556 5.33333333 -0.35555556 7.875 1 C9.75321874 4.33905554 9.30079454 7.20998874 9 11 C8.34 11.66 7.68 12.32 7 13 C6.01 13 5.02 13 4 13 C4 12.34 4 11.68 4 11 C2.68 10.67 1.36 10.34 0 10 C0 6.7 0 3.4 0 0 Z " fill="#39A429" transform="translate(142,189)"/>
<path d="M0 0 C2 2 2 2 2.24804688 4.66455078 C2.16654319 14.13935464 1.4576961 23.45444123 0.5 32.875 C0.35484985 34.35280393 0.21031551 35.83066847 0.06640625 37.30859375 C-0.28199953 40.87311958 -0.63861442 44.43676382 -1 48 C-1.33 48 -1.66 48 -2 48 C-2.85451426 41.84270565 -2.99209912 36.39958779 -2.22265625 30.24609375 C-2.08735756 29.06660912 -2.08735756 29.06660912 -1.94932556 27.86329651 C-1.66309347 25.38682701 -1.36306427 22.91226651 -1.0625 20.4375 C-0.86431385 18.74424811 -0.66704005 17.05088918 -0.47070312 15.35742188 C0.0090083 11.23697029 0.50108816 7.11816901 1 3 C-0.32 3 -1.64 3 -3 3 C-3 2.34 -3 1.68 -3 1 C-6.3 1 -9.6 1 -13 1 C-13 0.67 -13 0.34 -13 0 C-8.37641448 -1.01493341 -4.63768456 -0.98104866 0 0 Z " fill="#449DAB" transform="translate(119,160)"/>
<path d="M0 0 C4.26877099 7.59045131 1.6248201 18.01651766 0.6875 26.3125 C0.56955078 27.47845703 0.45160156 28.64441406 0.33007812 29.84570312 C0.20439453 30.96525391 0.07871094 32.08480469 -0.05078125 33.23828125 C-0.16075439 34.24930908 -0.27072754 35.26033691 -0.3840332 36.30200195 C-1.0504636 39.22103576 -2.04123312 40.77037161 -4 43 C-3.46524157 28.56152237 -1.85016666 14.32443237 0 0 Z " fill="#C6F3E5" transform="translate(67,165)"/>
<path d="M0 0 C4.8527811 -0.32351874 9.21996348 0.0439927 14 1 C12.35 2.65 10.7 4.3 9 6 C9 4.68 9 3.36 9 2 C6.36 2 3.72 2 1 2 C1 14.87 1 27.74 1 41 C0.67 41 0.34 41 0 41 C-0.33 34.4 -0.66 27.8 -1 21 C-1.33 21 -1.66 21 -2 21 C-2.05390357 18.06225537 -2.0936255 15.12549768 -2.125 12.1875 C-2.14175781 11.35412109 -2.15851563 10.52074219 -2.17578125 9.66210938 C-2.18222656 8.85966797 -2.18867188 8.05722656 -2.1953125 7.23046875 C-2.20578613 6.49207764 -2.21625977 5.75368652 -2.22705078 4.99291992 C-2 3 -2 3 0 0 Z " fill="#DEFBDA" transform="translate(174,198)"/>
<path d="M0 0 C2.97 0 5.94 0 9 0 C9 0.66 9 1.32 9 2 C10.65 2.33 12.3 2.66 14 3 C13.0625 5.5 13.0625 5.5 11 8 C7.90030611 8.71034652 5.1093089 8.63420922 2 8 C-0.5625 6 -0.5625 6 -2 4 C-1.34 2.68 -0.68 1.36 0 0 Z " fill="#BFDCB9" transform="translate(61,244)"/>
<path d="M0 0 C3.3 0 6.6 0 10 0 C12 4 12 4 11.625 6.25 C11.41875 6.8275 11.2125 7.405 11 8 C10.608125 7.175 10.21625 6.35 9.8125 5.5 C9.214375 4.675 8.61625 3.85 8 3 C5.37305578 2.58219121 5.37305578 2.58219121 3 3 C3.495 3.53625 3.99 4.0725 4.5 4.625 C6.37489544 7.59358445 6.23501425 9.55312427 6 13 C6.66 13 7.32 13 8 13 C8.25523437 13.97839844 8.25523437 13.97839844 8.515625 14.9765625 C10.02094628 20.40532755 11.70367371 24.45334305 15 29 C15 29.66 15 30.32 15 31 C14.01 31.33 13.02 31.66 12 32 C10.44854362 28.08686954 8.90038271 24.17245628 7.35522461 20.25683594 C6.82943011 18.92575162 6.30274639 17.59501818 5.77514648 16.26464844 C5.01570746 14.34923012 4.25950503 12.43256094 3.50390625 10.515625 C3.04830322 9.36352539 2.5927002 8.21142578 2.12329102 7.02441406 C1 4 1 4 0 0 Z " fill="#4699AB" transform="translate(333,200)"/>
<path d="M0 0 C7.26 0 14.52 0 22 0 C22.495 1.98 22.495 1.98 23 4 C22.34644531 3.83628906 21.69289062 3.67257813 21.01953125 3.50390625 C17.23008226 2.87151437 13.51509049 2.89303291 9.6875 2.9375 C8.57665039 2.94426758 8.57665039 2.94426758 7.44335938 2.95117188 C5.62887101 2.96287825 3.81442466 2.98081102 2 3 C0.68 5.97 -0.64 8.94 -2 12 C-6.29 12 -10.58 12 -15 12 C-14.67 11.34 -14.34 10.68 -14 10 C-10.7 10.33 -7.4 10.66 -4 11 C-3.71125 9.9275 -3.4225 8.855 -3.125 7.75 C-2 4 -2 4 0 0 Z " fill="#CDEEC7" transform="translate(134,228)"/>
<path d="M0 0 C0.99 0 1.98 0 3 0 C3.33 0.66 3.66 1.32 4 2 C4.99 2 5.98 2 7 2 C6.57734433 5.41909509 6.07335716 8.71999487 5 12 C2.5 13.5 2.5 13.5 0 14 C-0.66 14.66 -1.32 15.32 -2 16 C-3.3805087 12.23331402 -2.59568159 9.55210827 -1.5625 5.75 C-1.27503906 4.67234375 -0.98757812 3.5946875 -0.69140625 2.484375 C-0.46324219 1.66453125 -0.23507813 0.8446875 0 0 Z " fill="#3BA22B" transform="translate(135,199)"/>
<path d="M0 0 C0.33 0 0.66 0 1 0 C1.33 1.65 1.66 3.3 2 5 C2.99 5.33 3.98 5.66 5 6 C5 6.99 5 7.98 5 9 C6.32 8.34 7.64 7.68 9 7 C9 8.98 9 10.96 9 13 C9.99 13 10.98 13 12 13 C12.33 12.01 12.66 11.02 13 10 C13 11.32 13 12.64 13 14 C12.38511719 13.9278125 11.77023438 13.855625 11.13671875 13.78125 C10.32847656 13.6884375 9.52023438 13.595625 8.6875 13.5 C7.88699219 13.4071875 7.08648437 13.314375 6.26171875 13.21875 C3.88103445 12.95186537 3.88103445 12.95186537 1 13 C0.67 16.63 0.34 20.26 0 24 C-0.66 24 -1.32 24 -2 24 C-2.28545428 15.86455314 -1.18396883 8.02350304 0 0 Z " fill="#DAF4EA" transform="translate(73,193)"/>
<path d="M0 0 C3.19446042 1.59723021 3.83269963 4.89976488 5.125 8.0625 C5.40214844 8.72572266 5.67929687 9.38894531 5.96484375 10.07226562 C6.64920153 11.71236443 7.3253775 13.35587283 8 15 C9.65 11.37 11.3 7.74 13 4 C13.33 4 13.66 4 14 4 C14.33 6.97 14.66 9.94 15 13 C14.34 13 13.68 13 13 13 C12.9175 13.61875 12.835 14.2375 12.75 14.875 C12 17 12 17 9.9375 18.25 C9.298125 18.4975 8.65875 18.745 8 19 C5.65486974 17.74926386 4.24859531 16.71395361 3.359375 14.16015625 C3.03436916 12.75267126 2.72725888 11.34094293 2.4375 9.92578125 C2.05431514 7.8855485 2.05431514 7.8855485 0.875 5.75 C0 4 0 4 0 0 Z M15 10 C15.66 10 16.32 10 17 10 C17 10.66 17 11.32 17 12 C16.34 12 15.68 12 15 12 C15 11.34 15 10.68 15 10 Z " fill="#3C9EB4" transform="translate(345,208)"/>
<path d="M0 0 C2.45098556 0.39532025 4.63904279 1.21301426 7 2 C6.67 4.64 6.34 7.28 6 10 C3.36 10.33 0.72 10.66 -2 11 C-2.05399736 9.54207116 -2.09279177 8.08357288 -2.125 6.625 C-2.15980469 5.40683594 -2.15980469 5.40683594 -2.1953125 4.1640625 C-2 2 -2 2 0 0 Z " fill="#F9FCF4" transform="translate(102,195)"/>
<path d="M0 0 C0.66 2.97 1.32 5.94 2 9 C1.01 8.67 0.02 8.34 -1 8 C-1 6.02 -1 4.04 -1 2 C-3.31 2 -5.62 2 -8 2 C-7.37590455 4.04194335 -6.75068171 6.08354215 -6.125 8.125 C-5.77695312 9.26195312 -5.42890625 10.39890625 -5.0703125 11.5703125 C-4.37210714 13.8076275 -3.64165876 16.03520803 -2.875 18.25 C-1.99778523 21.00696072 -1.83112072 23.12905232 -2 26 C-4.62304778 22.06542833 -6.00774819 17.9244328 -7.625 13.5 C-8.11226562 12.19869141 -8.11226562 12.19869141 -8.609375 10.87109375 C-9.06957031 9.62005859 -9.06957031 9.62005859 -9.5390625 8.34375 C-9.95986084 7.20196289 -9.95986084 7.20196289 -10.38916016 6.03710938 C-11 4 -11 4 -11 1 C-7.26562152 0.12132271 -3.83225427 -0.08912219 0 0 Z " fill="#4F9B45" transform="translate(48,166)"/>
<path d="M0 0 C2.8125 0.4375 2.8125 0.4375 6 2 C10.2352592 8.53129715 9.77850403 17.58282428 9 25 C7.82253241 29.31738117 6.19325838 32.68330109 3.1875 36 C0.18039862 37.37467492 -2.72809406 37.68539366 -6 38 C-5.01 37.34 -4.02 36.68 -3 36 C2.02445044 32.31159661 5.27237577 29.19912225 7 23 C7.87756425 14.63223952 6.87988014 8.86726762 1.8125 2.0625 C1.214375 1.381875 0.61625 0.70125 0 0 Z " fill="#D4F5F7" transform="translate(272,202)"/>
<path d="M0 0 C0 0.33 0 0.66 0 1 C-2.31 1.33 -4.62 1.66 -7 2 C-7.02689216 3.47906892 -7.04634621 4.95827483 -7.0625 6.4375 C-7.07410156 7.26121094 -7.08570313 8.08492187 -7.09765625 8.93359375 C-7.23267348 10.99163938 -7.23267348 10.99163938 -6 12 C-0.67326964 12.33856828 -0.67326964 12.33856828 4 10 C3.67 12.31 3.34 14.62 3 17 C-0.3 17 -3.6 17 -7 17 C-7 15.68 -7 14.36 -7 13 C-8.32 12.67 -9.64 12.34 -11 12 C-10.71905418 10.1858073 -10.42493567 8.37364999 -10.125 6.5625 C-9.96257812 5.55316406 -9.80015625 4.54382813 -9.6328125 3.50390625 C-9.42398438 2.67761719 -9.21515625 1.85132813 -9 1 C-6.04335481 -0.4783226 -3.25770263 -0.06032783 0 0 Z " fill="#DCF5D8" transform="translate(207,183)"/>
<path d="M0 0 C1.65 0 3.3 0 5 0 C6.77985509 5.25091349 7.14857733 9.26430002 6.6875 14.875 C6.63916016 15.55046875 6.59082031 16.2259375 6.54101562 16.921875 C6.15014143 21.84985857 6.15014143 21.84985857 5 23 C4.71693766 25.54756104 4.55184214 28.09510022 4.37890625 30.65234375 C4 33 4 33 2 35 C2.10828125 33.29457031 2.10828125 33.29457031 2.21875 31.5546875 C2.67809259 24.06267952 3.09282752 16.56748574 3.25 9.0625 C3.27578125 7.96035156 3.3015625 6.85820312 3.328125 5.72265625 C3.23882409 2.95630273 3.23882409 2.95630273 1.484375 1.12109375 C0.99453125 0.75113281 0.5046875 0.38117188 0 0 Z " fill="#D6F5F7" transform="translate(117,159)"/>
<path d="M0 0 C1.46742295 4.43416936 0.5695845 8.48545903 -0.0390625 13.02734375 C0.00795527 16.6053962 0.85023258 18.17781675 3 21 C6.44450737 23.29633824 8.93812283 23.54016485 13 24 C13 24.66 13 25.32 13 26 C11.06318839 26.08107583 9.1254066 26.13922475 7.1875 26.1875 C6.10855469 26.22230469 5.02960938 26.25710937 3.91796875 26.29296875 C1 26 1 26 -0.8671875 25.0078125 C-2.70818127 21.74480974 -2.38984031 18.32868169 -2.3125 14.6875 C-2.31572266 13.94048828 -2.31894531 13.19347656 -2.32226562 12.42382812 C-2.27867221 7.90992833 -1.69491149 4.24740768 0 0 Z " fill="#639F5D" transform="translate(61,216)"/>
<path d="M0 0 C0.66 0.33 1.32 0.66 2 1 C2.02505615 1.62567871 2.0501123 2.25135742 2.07592773 2.89599609 C2.19175273 5.72254619 2.31453985 8.54875169 2.4375 11.375 C2.47681641 12.35984375 2.51613281 13.3446875 2.55664062 14.359375 C2.59853516 15.30039063 2.64042969 16.24140625 2.68359375 17.2109375 C2.72025146 18.08024902 2.75690918 18.94956055 2.79467773 19.84521484 C2.87401544 22.0483262 2.87401544 22.0483262 4 24 C3.01 23.67 2.02 23.34 1 23 C-0.0625 20.875 -0.0625 20.875 -1 18 C-1.37125 16.88625 -1.7425 15.7725 -2.125 14.625 C-3.01388368 10.9424819 -3.15396781 7.7722113 -3 4 C-2.34 4 -1.68 4 -1 4 C-0.67 2.68 -0.34 1.36 0 0 Z " fill="#E2F9E0" transform="translate(57,217)"/>
<path d="M0 0 C0.33 0 0.66 0 1 0 C1 9.24 1 18.48 1 28 C4.465 27.505 4.465 27.505 8 27 C8 18.09 8 9.18 8 0 C8.33 0 8.66 0 9 0 C9 9.9 9 19.8 9 30 C6.03 30 3.06 30 0 30 C0 20.1 0 10.2 0 0 Z " fill="#459438" transform="translate(218,209)"/>
<path d="M0 0 C-0.33 0.99 -0.66 1.98 -1 3 C-1 2.34 -1 1.68 -1 1 C-2.8253125 1.495 -2.8253125 1.495 -4.6875 2 C-7.87210604 2.80322213 -10.6972843 3.20641973 -14 3 C-14.33 3.66 -14.66 4.32 -15 5 C-15.99 4.67 -16.98 4.34 -18 4 C-17.7834375 4.60585937 -17.566875 5.21171875 -17.34375 5.8359375 C-15.27480194 12.06193861 -14.62423891 17.45897355 -15 24 C-15.33 24 -15.66 24 -16 24 C-16.64881448 21.45906145 -17.29412899 18.91731727 -17.9375 16.375 C-18.11990234 15.66214844 -18.30230469 14.94929687 -18.49023438 14.21484375 C-19.51316799 10.16030687 -20.37957367 6.14052941 -21 2 C-18.62561751 1.6616656 -16.25065041 1.32920998 -13.875 1 C-12.87726562 0.85691406 -12.87726562 0.85691406 -11.859375 0.7109375 C-7.87371019 0.16388547 -4.02140062 -0.10022182 0 0 Z " fill="#5EA254" transform="translate(69,156)"/>
<path d="M0 0 C-1.32 0.33 -2.64 0.66 -4 1 C-4.16802051 2.45817797 -4.33437143 3.9165484 -4.5 5.375 C-4.5928125 6.18710938 -4.685625 6.99921875 -4.78125 7.8359375 C-5.03352351 9.96912825 -5.03352351 9.96912825 -5 12 C-4.34 12 -3.68 12 -3 12 C-3 12.99 -3 13.98 -3 15 C-6.76075665 13.74641445 -7.47649131 12.29326113 -9.6875 9.0625 C-10.31011719 8.16660156 -10.93273437 7.27070313 -11.57421875 6.34765625 C-13 4 -13 4 -13 2 C-11.5882217 1.46605821 -10.17029756 0.94834896 -8.75 0.4375 C-7.96109375 0.14746094 -7.1721875 -0.14257812 -6.359375 -0.44140625 C-3.80896548 -1.04522837 -2.44677771 -0.8473932 0 0 Z " fill="#4B9D3F" transform="translate(36,175)"/>
<path d="M0 0 C2.22652997 3.33979496 3.64941252 6.79338073 5.125 10.5 C5.40214844 11.17675781 5.67929688 11.85351562 5.96484375 12.55078125 C7.15187214 15.5154285 8 17.77680496 8 21 C5.36 21 2.72 21 0 21 C0 20.01 0 19.02 0 18 C1.65 18 3.3 18 5 18 C5 17.01 5 16.02 5 15 C4.34 15 3.68 15 3 15 C0.76665633 12.72880304 0.04159216 11.39706651 -0.29296875 8.203125 C-0.25816406 7.22859375 -0.22335938 6.2540625 -0.1875 5.25 C-0.16042969 4.26515625 -0.13335937 3.2803125 -0.10546875 2.265625 C-0.07066406 1.51796875 -0.03585938 0.7703125 0 0 Z " fill="#4E9E44" transform="translate(162,218)"/>
<path d="M0 0 C0 0.66 0 1.32 0 2 C2.475 2.495 2.475 2.495 5 3 C5.33 3.99 5.66 4.98 6 6 C4.989375 5.67 3.97875 5.34 2.9375 5 C-4.79811452 2.86069178 -10.04875952 4.46921118 -17 8 C-17 6.68 -17 5.36 -17 4 C-19.97 4 -22.94 4 -26 4 C-26 3.67 -26 3.34 -26 3 C-24.64455078 3.03480469 -24.64455078 3.03480469 -23.26171875 3.0703125 C-21.49248047 3.09738281 -21.49248047 3.09738281 -19.6875 3.125 C-18.51574219 3.14820313 -17.34398437 3.17140625 -16.13671875 3.1953125 C-12.83606339 3.25320618 -12.83606339 3.25320618 -10 1 C-6.71736127 0.31097088 -3.35497878 0 0 0 Z " fill="#DCF8FA" transform="translate(266,196)"/>
<path d="M0 0 C2.3828125 -0.29296875 2.3828125 -0.29296875 5.125 -0.1875 C6.73375 -0.125625 8.3425 -0.06375 10 0 C8.35 3.96 6.7 7.92 5 12 C3.86242052 7.44968209 4.5716221 5.36915594 6 1 C4.68 1.33 3.36 1.66 2 2 C2 4.31 2 6.62 2 9 C1.01 9.495 1.01 9.495 0 10 C-0.99 9.67 -1.98 9.34 -3 9 C-3 9.99 -3 10.98 -3 12 C-3.66 12 -4.32 12 -5 12 C-4.54738642 10.56068883 -4.08767021 9.12361001 -3.625 7.6875 C-3.24214844 6.48673828 -3.24214844 6.48673828 -2.8515625 5.26171875 C-2 3 -2 3 0 0 Z " fill="#4E99A7" transform="translate(364,200)"/>
<path d="M0 0 C0.87398438 0.04543945 0.87398438 0.04543945 1.765625 0.09179688 C13.85562838 0.70960365 25.8931169 1.15610594 38 1 C38 1.66 38 2.32 38 3 C36.338451 3.39706134 34.6702795 3.76643456 33 4.125 C32.071875 4.33382812 31.14375 4.54265625 30.1875 4.7578125 C26.86173285 5.01050559 24.38317381 4.38167729 21.19921875 3.48486328 C17.16684106 2.59584218 13.10874918 2.79295125 9 2.875 C8.12988281 2.88402344 7.25976562 2.89304688 6.36328125 2.90234375 C4.2420658 2.92565381 2.12099438 2.96151421 0 3 C0 2.01 0 1.02 0 0 Z " fill="#D7F6FA" transform="translate(74,239)"/>
<path d="M0 0 C0.33 1.32 0.66 2.64 1 4 C0.071875 4.3403125 0.071875 4.3403125 -0.875 4.6875 C-3.64557394 6.39873685 -3.9657324 7.97107345 -5 11 C-5.99 12.485 -5.99 12.485 -7 14 C-7.36576054 16.31923274 -7.36576054 16.31923274 -7.4140625 18.88671875 C-7.45273438 19.82451172 -7.49140625 20.76230469 -7.53125 21.72851562 C-7.5621875 22.70498047 -7.593125 23.68144531 -7.625 24.6875 C-7.66367188 25.67556641 -7.70234375 26.66363281 -7.7421875 27.68164062 C-7.83645867 30.12090707 -7.92206218 32.56016595 -8 35 C-8.33 35 -8.66 35 -9 35 C-9.08706286 30.58345745 -9.14041378 26.16713543 -9.1875 21.75 C-9.21263672 20.49574219 -9.23777344 19.24148437 -9.26367188 17.94921875 C-9.27333984 16.74394531 -9.28300781 15.53867188 -9.29296875 14.296875 C-9.3086792 13.18666992 -9.32438965 12.07646484 -9.34057617 10.93261719 C-8.96137436 7.66740413 -8.32889322 6.28994621 -6 4 C-3.3125 3.75 -3.3125 3.75 -1 4 C-0.67 2.68 -0.34 1.36 0 0 Z " fill="#DFFCD9" transform="translate(194,204)"/>
<path d="M0 0 C0.33 0.66 0.66 1.32 1 2 C1.78375 1.979375 2.5675 1.95875 3.375 1.9375 C6 2 6 2 8 3 C8 3.99 8 4.98 8 6 C8.66 6 9.32 6 10 6 C10 6.99 10 7.98 10 9 C8.35 9 6.7 9 5 9 C5 9.99 5 10.98 5 12 C4.01 11.67 3.02 11.34 2 11 C1.05078125 8.71484375 1.05078125 8.71484375 0.3125 5.9375 C0.06113281 5.01839844 -0.19023437 4.09929687 -0.44921875 3.15234375 C-0.63097656 2.44207031 -0.81273437 1.73179687 -1 1 C-0.67 0.67 -0.34 0.34 0 0 Z " fill="#3CA12D" transform="translate(157,227)"/>
<path d="M0 0 C5.78898419 -0.20674944 10.42932723 0.40837921 16 2 C13.09868263 2.83815835 11.25799648 2.9760644 8.125 2.875 C4.02754926 2.8445922 1.46872977 3.68751349 -2 6 C-5.27876191 9.42779654 -7.53619827 12.47552194 -9 17 C-9.66 16.01 -10.32 15.02 -11 14 C-8.25 8.125 -8.25 8.125 -6 7 C-5.67 6.01 -5.34 5.02 -5 4 C-3.35 3.67 -1.7 3.34 0 3 C0 2.01 0 1.02 0 0 Z " fill="#DEFBFC" transform="translate(296,197)"/>
<path d="M0 0 C-0.5659908 11.06660956 -1.59883036 22.00830029 -3 33 C-3.33 33 -3.66 33 -4 33 C-4.14760856 26.17720454 -3.83114181 19.42546132 -3.35571289 12.62304688 C-3.1109856 9.07384684 -2.94494627 5.55784759 -3 2 C-4.65 2 -6.3 2 -8 2 C-4.91190305 0.23537317 -3.76687864 0 0 0 Z " fill="#4A9C42" transform="translate(68,157)"/>
<path d="M0 0 C1.15941038 3.47823115 0.70820884 5.45895578 0 9 C0.99 9.33 1.98 9.66 3 10 C3.33 10.99 3.66 11.98 4 13 C-0.08443115 14.53166168 -3.79455657 13.63081652 -8 13 C-8 12.34 -8 11.68 -8 11 C-7.236875 10.2575 -6.47375 9.515 -5.6875 8.75 C-2.97366049 5.97304795 -1.55797703 3.52594801 0 0 Z " fill="#F5FCF4" transform="translate(197,186)"/>
<path d="M0 0 C2 2 2 2 2.23046875 4.64453125 C2.20919922 6.21267578 2.20919922 6.21267578 2.1875 7.8125 C2.18105469 8.85019531 2.17460938 9.88789063 2.16796875 10.95703125 C2.01429286 13.74106653 1.62662052 16.28798637 1 19 C0.01 18.67 -0.98 18.34 -2 18 C-2.33 18.99 -2.66 19.98 -3 21 C-4.29243536 16.8803623 -5.26252625 13.33168317 -5 9 C-2 11 -2 11 -1 14 C-0.67 9.38 -0.34 4.76 0 0 Z " fill="#D0F2CD" transform="translate(56,203)"/>
<path d="M0 0 C0.33 0 0.66 0 1 0 C1.33226162 12.12139618 1.0017658 23.20734863 -2 35 C-2.33 35 -2.66 35 -3 35 C-2.38582209 23.28213196 -1.3053624 11.65954766 0 0 Z " fill="#DAF9FB" transform="translate(118,198)"/>
<path d="M0 0 C3.20831391 -0.0292483 6.41659307 -0.04688189 9.625 -0.0625 C10.98044922 -0.07506836 10.98044922 -0.07506836 12.36328125 -0.08789062 C17.02904289 -0.10491895 21.41013285 0.03170577 26 1 C26 1.33 26 1.66 26 2 C25.31373535 1.98428955 24.6274707 1.9685791 23.92041016 1.95239258 C20.82202337 1.89017281 17.72376776 1.85105102 14.625 1.8125 C13.54476562 1.78736328 12.46453125 1.76222656 11.3515625 1.73632812 C10.3203125 1.72666016 9.2890625 1.71699219 8.2265625 1.70703125 C7.27346191 1.6913208 6.32036133 1.67561035 5.33837891 1.65942383 C4.18088135 1.82800903 4.18088135 1.82800903 3 2 C1.03723968 4.94414048 0.74523621 5.80204933 0.5 9.125 C0.335 10.40375 0.17 11.6825 0 13 C-0.99 13.495 -0.99 13.495 -2 14 C-2.05437607 12.41705218 -2.09296271 10.83355744 -2.125 9.25 C-2.14820312 8.36828125 -2.17140625 7.4865625 -2.1953125 6.578125 C-1.98938266 3.8598511 -1.27258701 2.36903741 0 0 Z " fill="#C9F2F5" transform="translate(70,155)"/>
<path d="M0 0 C1.65 0.33 3.3 0.66 5 1 C5 1.66 5 2.32 5 3 C5.99 3 6.98 3 8 3 C7.67 3.99 7.34 4.98 7 6 C5.02 6 3.04 6 1 6 C0.34 7.98 -0.32 9.96 -1 12 C-2.32 12 -3.64 12 -5 12 C-5 11.34 -5 10.68 -5 10 C-4.34 10 -3.68 10 -3 10 C-3 8.02 -3 6.04 -3 4 C-2.34 4 -1.68 4 -1 4 C-0.67 2.68 -0.34 1.36 0 0 Z " fill="#DEF2DC" transform="translate(84,186)"/>
<path d="M0 0 C2.64 0 5.28 0 8 0 C8 10.56 8 21.12 8 32 C7.67 32 7.34 32 7 32 C6.97494385 31.23856689 6.9498877 30.47713379 6.92407227 29.69262695 C6.80780952 26.23242624 6.68522022 22.77247746 6.5625 19.3125 C6.52318359 18.11431641 6.48386719 16.91613281 6.44335938 15.68164062 C6.40146484 14.52470703 6.35957031 13.36777344 6.31640625 12.17578125 C6.27974854 11.11270752 6.24309082 10.04963379 6.20532227 8.9543457 C6.0151475 6.21795468 5.6068493 3.67143268 5 1 C1.72226496 1.75150023 1.72226496 1.75150023 0 5 C0 3.35 0 1.7 0 0 Z " fill="#419834" transform="translate(201,201)"/>
<path d="M0 0 C0.33 0 0.66 0 1 0 C1 1.98 1 3.96 1 6 C1.66 6 2.32 6 3 6 C3.66 6.66 4.32 7.32 5 8 C5.66 7.34 6.32 6.68 7 6 C7.33 6.99 7.66 7.98 8 9 C7.67 9.66 7.34 10.32 7 11 C3.7 11 0.4 11 -3 11 C-2.44894091 7.0507432 -1.61064629 3.65079826 0 0 Z " fill="#48983B" transform="translate(123,228)"/>
<path d="M0 0 C2.12534659 0.14069196 4.25027529 0.28770921 6.375 0.4375 C8.15003906 0.55931641 8.15003906 0.55931641 9.9609375 0.68359375 C13 1 13 1 15 2 C15 3.65 15 5.3 15 7 C12.69 6.67 10.38 6.34 8 6 C8.33 5.01 8.66 4.02 9 3 C5.7 3.33 2.4 3.66 -1 4 C-0.67 2.68 -0.34 1.36 0 0 Z " fill="#EEFCE9" transform="translate(61,241)"/>
<path d="M0 0 C2.17414876 3.76068974 3.10243907 7.81886196 4.125 12 C4.30675781 12.7115625 4.48851562 13.423125 4.67578125 14.15625 C5.52318391 17.57134644 6 20.45845722 6 24 C5.34 24 4.68 24 4 24 C3.3304744 21.37569876 2.66426282 18.75063343 2 16.125 C1.71382812 15.00544922 1.71382812 15.00544922 1.421875 13.86328125 C0 8.2265625 0 8.2265625 0 6 C-0.66 5.67 -1.32 5.34 -2 5 C-1.34 3.35 -0.68 1.7 0 0 Z " fill="#CFF5C8" transform="translate(48,160)"/>
<path d="M0 0 C1.37478516 0.01740234 1.37478516 0.01740234 2.77734375 0.03515625 C3.69644531 0.04417969 4.61554688 0.05320313 5.5625 0.0625 C6.27277344 0.07410156 6.98304688 0.08570313 7.71484375 0.09765625 C8.37484375 2.07765625 9.03484375 4.05765625 9.71484375 6.09765625 C9.19921875 5.78828125 8.68359375 5.47890625 8.15234375 5.16015625 C5.04818952 3.80706338 2.06369368 3.48406201 -1.28515625 3.09765625 C-1.61515625 4.08765625 -1.94515625 5.07765625 -2.28515625 6.09765625 C-2.94515625 6.09765625 -3.60515625 6.09765625 -4.28515625 6.09765625 C-3.21536826 0.1374089 -3.21536826 0.1374089 0 0 Z " fill="#5A9E4F" transform="translate(142.28515625,185.90234375)"/>
<path d="M0 0 C0.99 0.33 1.98 0.66 3 1 C3.6875 3.0625 3.6875 3.0625 4 5 C3.34 5 2.68 5 2 5 C1.896875 5.639375 1.79375 6.27875 1.6875 6.9375 C1.460625 7.618125 1.23375 8.29875 1 9 C-2 10 -2 10 -5 10 C-5 10.66 -5 11.32 -5 12 C-3.68 12 -2.36 12 -1 12 C-1 12.66 -1 13.32 -1 14 C-2.65 14 -4.3 14 -6 14 C-6 11.69 -6 9.38 -6 7 C-4.02 7 -2.04 7 0 7 C0 4.69 0 2.38 0 0 Z " fill="#E9F8E4" transform="translate(234,185)"/>
<path d="M0 0 C0.55268555 0.47542236 1.10537109 0.95084473 1.67480469 1.44067383 C4.3181846 3.21338146 6.06329829 3.56586781 9.203125 3.94921875 C10.1828125 4.07490234 11.1625 4.20058594 12.171875 4.33007812 C13.18765625 4.44802734 14.2034375 4.56597656 15.25 4.6875 C16.28125 4.81705078 17.3125 4.94660156 18.375 5.08007812 C20.91552801 5.39764413 23.45690095 5.70385529 26 6 C26 6.33 26 6.66 26 7 C22.60445765 7.11660824 19.20943321 7.18738372 15.8125 7.25 C14.85279297 7.28351563 13.89308594 7.31703125 12.90429688 7.3515625 C8.44652708 7.41326174 5.7521313 7.43296119 1.82421875 5.171875 C0 3 0 3 0 0 Z " fill="#C4F1EB" transform="translate(62,233)"/>
<path d="M0 0 C0.33 0 0.66 0 1 0 C1.144375 0.928125 1.28875 1.85625 1.4375 2.8125 C1.92100111 6.00725111 1.92100111 6.00725111 3 9 C2.5625 11.1875 2.5625 11.1875 2 13 C0.02 13 -1.96 13 -4 13 C-3.67 11.68 -3.34 10.36 -3 9 C-3.99 8.67 -4.98 8.34 -6 8 C-4.68 8 -3.36 8 -2 8 C-2.061875 6.576875 -2.061875 6.576875 -2.125 5.125 C-2 2 -2 2 0 0 Z " fill="#3BA0B8" transform="translate(110,226)"/>
<path d="M0 0 C0.33 0 0.66 0 1 0 C0.67 6.27 0.34 12.54 0 19 C-0.99 19 -1.98 19 -3 19 C-4.56364485 13.21451407 -3.5889242 7.68667608 -2 2 C-1.34 1.34 -0.68 0.68 0 0 Z " fill="#289DB4" transform="translate(71,186)"/>
<path d="M0 0 C1.88153009 2.82229513 3.00034705 5.27890171 4.1875 8.4375 C4.55230469 9.38496094 4.91710938 10.33242187 5.29296875 11.30859375 C6.01860758 14.07083217 5.97849698 15.36366738 5 18 C4.0234375 16.27473958 3.046875 14.54947917 2.0703125 12.82421875 C1.10571419 11.18017711 0.05732941 9.58599412 -1 8 C-3.58380177 7.74969023 -3.58380177 7.74969023 -6 8 C-5.67 7.34 -5.34 6.68 -5 6 C-3.02 6 -1.04 6 1 6 C0.67 4.02 0.34 2.04 0 0 Z " fill="#C3ECBC" transform="translate(36,167)"/>
<path d="M0 0 C0.33 0 0.66 0 1 0 C1 1.98 1 3.96 1 6 C1.66 6 2.32 6 3 6 C3 4.35 3 2.7 3 1 C3.33 1 3.66 1 4 1 C4 3.31 4 5.62 4 8 C7.465 7.505 7.465 7.505 11 7 C10.67 8.65 10.34 10.3 10 12 C8.51965236 11.52449439 7.04074979 11.04448784 5.5625 10.5625 C4.73878906 10.29566406 3.91507812 10.02882812 3.06640625 9.75390625 C1 9 1 9 0 8 C-0.14115161 5.32941149 -0.04247107 2.67567762 0 0 Z " fill="#69A25F" transform="translate(96,198)"/>
<path d="M0 0 C-0.7734375 0.3403125 -0.7734375 0.3403125 -1.5625 0.6875 C-2.7690625 1.3371875 -2.7690625 1.3371875 -4 2 C-4.60199219 2.30679688 -5.20398438 2.61359375 -5.82421875 2.9296875 C-7.88436746 4.14153968 -9.41968392 5.19947594 -11 7 C-11.77683176 10.11279768 -11.8031137 12.89229917 -11 16 C-9.55228406 17.76190878 -9.55228406 17.76190878 -8 19 C-8.33 19.99 -8.66 20.98 -9 22 C-11.54823079 19.69066585 -12.86283096 17.8096615 -13.44140625 14.39453125 C-13.64719167 9.47559577 -13.67037904 6.88207769 -10.625 2.875 C-6.74169129 0.10120806 -4.75090439 -0.10328053 0 0 Z " fill="#CBF3F7" transform="translate(262,208)"/>
<path d="M0 0 C8.44430279 0.51755404 16.68086307 1.4560881 25 3 C25 3.66 25 4.32 25 5 C16.55569721 4.48244596 8.31913693 3.5439119 0 2 C0 1.34 0 0.68 0 0 Z " fill="#4D9EAE" transform="translate(79,161)"/>
<path d="M0 0 C0.66 0 1.32 0 2 0 C0.43551329 5.6143991 -1.16395187 10.86810338 -4 16 C-4.99 14.68 -5.98 13.36 -7 12 C-6 10 -6 10 -3 9 C-1.97718482 6.90280128 -1.97718482 6.90280128 -1.3125 4.4375 C-1.06113281 3.61121094 -0.80976562 2.78492188 -0.55078125 1.93359375 C-0.36902344 1.29550781 -0.18726562 0.65742188 0 0 Z M-9 11 C-8.34 11.99 -7.68 12.98 -7 14 C-7.99 15.485 -7.99 15.485 -9 17 C-9.66 16.67 -10.32 16.34 -11 16 C-10.34 14.35 -9.68 12.7 -9 11 Z " fill="#E0F7E8" transform="translate(123,223)"/>
<path d="M0 0 C0.33 0 0.66 0 1 0 C1.10957031 0.66386719 1.21914063 1.32773438 1.33203125 2.01171875 C2.23413597 7.03563527 3.26443049 10.6479576 6 15 C6.1875 17.8125 6.1875 17.8125 6 20 C2.29442484 16.54146318 0.13938988 14.1521798 -0.1953125 8.984375 C-0.17210937 7.91703125 -0.14890625 6.8496875 -0.125 5.75 C-0.10695313 4.67234375 -0.08890625 3.5946875 -0.0703125 2.484375 C-0.04710937 1.66453125 -0.02390625 0.8446875 0 0 Z " fill="#3B98A8" transform="translate(287,215)"/>
<path d="M0 0 C1.65 0.33 3.3 0.66 5 1 C5.33 1.99 5.66 2.98 6 4 C5.01 4.66 4.02 5.32 3 6 C3 6.99 3 7.98 3 9 C2.01 9.33 1.02 9.66 0 10 C-0.66 9.34 -1.32 8.68 -2 8 C-1.69347955 5.0574037 -1.32728846 2.65457692 0 0 Z " fill="#3BA12B" transform="translate(202,185)"/>
<path d="M0 0 C3.71656547 3.71656547 3.9466586 9.47977004 4.125 14.5625 C4.08375 15.366875 4.0425 16.17125 4 17 C1.39473112 14.39473112 0.65865776 11.82060766 -0.625 8.375 C-1.07101563 7.18648437 -1.51703125 5.99796875 -1.9765625 4.7734375 C-2.31429687 3.85820312 -2.65203125 2.94296875 -3 2 C-2.01 2 -1.02 2 0 2 C0 1.34 0 0.68 0 0 Z " fill="#64A15B" transform="translate(51,217)"/>
<path d="M0 0 C1.75570312 0.19335938 1.75570312 0.19335938 3.546875 0.390625 C4.43890625 0.50921875 5.3309375 0.6278125 6.25 0.75 C6.25 1.41 6.25 2.07 6.25 2.75 C5.12851563 2.71519531 5.12851563 2.71519531 3.984375 2.6796875 C2.99953125 2.66164062 2.0146875 2.64359375 1 2.625 C0.02546875 2.60179687 -0.9490625 2.57859375 -1.953125 2.5546875 C-5.687203 2.80428304 -5.687203 2.80428304 -8.75 4.75 C-9.45672206 7.85930941 -9.45672206 7.85930941 -9.5 11.375 C-9.55671875 12.56351563 -9.6134375 13.75203125 -9.671875 14.9765625 C-9.69765625 15.89179688 -9.7234375 16.80703125 -9.75 17.75 C-10.08 17.75 -10.41 17.75 -10.75 17.75 C-10.85823773 15.50106046 -10.93569645 13.25062425 -11 11 C-11.04640625 9.74703125 -11.0928125 8.4940625 -11.140625 7.203125 C-10.75 3.75 -10.75 3.75 -9.15625 1.28125 C-5.86337084 -0.81421856 -3.83386146 -0.46006337 0 0 Z " fill="#CEEFC9" transform="translate(227.75,182.25)"/>
<path d="M0 0 C0.33 0 0.66 0 1 0 C1 4.29 1 8.58 1 13 C-7.28571429 17.57142857 -7.28571429 17.57142857 -13 17 C-13 16.34 -13 15.68 -13 15 C-11.7625 14.938125 -10.525 14.87625 -9.25 14.8125 C-6.08676406 14.39260142 -5.11869324 14.09738932 -2.5625 12 C-0.49974813 8.03951641 -0.19238048 4.415132 0 0 Z " fill="#4FA2B0" transform="translate(317,216)"/>
<path d="M0 0 C2.7053871 4.05808065 5 8.04889399 5 13 C0.38 13 -4.24 13 -9 13 C-8.67 12.01 -8.34 11.02 -8 10 C-8 10.66 -8 11.32 -8 12 C-5.03 12 -2.06 12 1 12 C0.67 8.04 0.34 4.08 0 0 Z " fill="#BAE6B2" transform="translate(147,206)"/>
<path d="M0 0 C0.90492188 0.02320313 1.80984375 0.04640625 2.7421875 0.0703125 C4.10730469 0.09738281 4.10730469 0.09738281 5.5 0.125 C6.19867188 0.14820313 6.89734375 0.17140625 7.6171875 0.1953125 C8.15059934 1.77445265 8.66844513 3.35885637 9.1796875 4.9453125 C9.46972656 5.82703125 9.75976562 6.70875 10.05859375 7.6171875 C10.6171875 10.1953125 10.6171875 10.1953125 9.6171875 14.1953125 C8.2971875 10.5653125 6.9771875 6.9353125 5.6171875 3.1953125 C2.3171875 2.8653125 -0.9828125 2.5353125 -4.3828125 2.1953125 C-2.3828125 0.1953125 -2.3828125 0.1953125 0 0 Z " fill="#E5FCE0" transform="translate(144.3828125,183.8046875)"/>
<path d="M0 0 C0.66 2.97 1.32 5.94 2 9 C1.01 8.67 0.02 8.34 -1 8 C-1 6.02 -1 4.04 -1 2 C-3.64 2 -6.28 2 -9 2 C-9 3.65 -9 5.3 -9 7 C-11 4 -11 4 -11 1 C-7.26562152 0.12132271 -3.83225427 -0.08912219 0 0 Z " fill="#589F4F" transform="translate(48,166)"/>
<path d="M0 0 C1.3805087 3.76668598 0.59568159 6.44789173 -0.4375 10.25 C-0.72496094 11.32765625 -1.01242188 12.4053125 -1.30859375 13.515625 C-1.65083984 14.74539062 -1.65083984 14.74539062 -2 16 C-3.32 16.33 -4.64 16.66 -6 17 C-4.13236819 11.27789404 -2.14710968 5.62338249 0 0 Z " fill="#55A349" transform="translate(134,200)"/>
<path d="M0 0 C2.8125 0.4375 2.8125 0.4375 6 2 C10.32925636 8.67625248 9.29107832 17.42118293 9 25 C8.67 25 8.34 25 8 25 C7.94392578 23.71416016 7.94392578 23.71416016 7.88671875 22.40234375 C7.35140374 13.09206114 6.29833363 7.16706931 0 0 Z " fill="#DEFAFD" transform="translate(272,202)"/>
<path d="M0 0 C1.32 0.66 2.64 1.32 4 2 C3.98839844 2.69867188 3.97679688 3.39734375 3.96484375 4.1171875 C3.95582031 5.02726563 3.94679688 5.93734375 3.9375 6.875 C3.92589844 7.77992188 3.91429688 8.68484375 3.90234375 9.6171875 C3.83750743 12.0168585 3.83750743 12.0168585 5 14 C4.01 14 3.02 14 2 14 C2 13.34 2 12.68 2 12 C1.01 12.33 0.02 12.66 -1 13 C-0.67 8.71 -0.34 4.42 0 0 Z " fill="#DEF8D9" transform="translate(93,194)"/>
<path d="M0 0 C3 1 3 1 4 3 C4.66 2.34 5.32 1.68 6 1 C8.6015625 0.8046875 8.6015625 0.8046875 11.625 0.875 C13.12933594 0.90207031 13.12933594 0.90207031 14.6640625 0.9296875 C15.43492188 0.95289063 16.20578125 0.97609375 17 1 C16.67 1.99 16.34 2.98 16 4 C15.67 3.67 15.34 3.34 15 3 C11.54187831 2.66661404 11.54187831 2.66661404 8 3 C7.01 4.485 7.01 4.485 6 6 C5.01 6 4.02 6 3 6 C2.67 6.66 2.34 7.32 2 8 C1.34 5.36 0.68 2.72 0 0 Z " fill="#E5FAE3" transform="translate(92,190)"/>
<path d="M0 0 C0.99 0.33 1.98 0.66 3 1 C3 3.97 3 6.94 3 10 C1.02 10.99 1.02 10.99 -1 12 C-1.02712066 10.56260487 -1.04645067 9.12506137 -1.0625 7.6875 C-1.07410156 6.88699219 -1.08570312 6.08648437 -1.09765625 5.26171875 C-1 3 -1 3 0 0 Z " fill="#2B9CB7" transform="translate(72,164)"/>
<path d="M0 0 C7.26 0.66 14.52 1.32 22 2 C18.19964356 3.90017822 17.36564509 4.24092197 13.453125 3.9765625 C12.18662109 3.89921875 12.18662109 3.89921875 10.89453125 3.8203125 C10.02183594 3.75585938 9.14914063 3.69140625 8.25 3.625 C7.36183594 3.56828125 6.47367187 3.5115625 5.55859375 3.453125 C3.37153668 3.31202454 1.1856931 3.1606567 -1 3 C-0.67 2.01 -0.34 1.02 0 0 Z " fill="#489EB1" transform="translate(70,230)"/>
<path d="M0 0 C0.99 0.33 1.98 0.66 3 1 C3.33 1.99 3.66 2.98 4 4 C5.32 4 6.64 4 8 4 C8 6.31 8 8.62 8 11 C7.34 11 6.68 11 6 11 C6 10.34 6 9.68 6 9 C5.01 9 4.02 9 3 9 C2.01 6.03 1.02 3.06 0 0 Z " fill="#4A9C3A" transform="translate(46,194)"/>
<path d="M0 0 C4.29 0.33 8.58 0.66 13 1 C13.09063407 6.80058027 12.83485204 12.26039225 12 18 C11.67 18 11.34 18 11 18 C11.01160156 17.00097656 11.02320312 16.00195312 11.03515625 14.97265625 C11.04417969 13.68230469 11.05320312 12.39195312 11.0625 11.0625 C11.07410156 9.77472656 11.08570312 8.48695313 11.09765625 7.16015625 C11.36532549 4.13701597 11.36532549 4.13701597 10 3 C8.32115762 2.6068352 6.63149955 2.25914548 4.9375 1.9375 C4.01839844 1.76089844 3.09929687 1.58429688 2.15234375 1.40234375 C1.44207031 1.26957031 0.73179688 1.13679687 0 1 C0 0.67 0 0.34 0 0 Z " fill="#CEF6FA" transform="translate(102,166)"/>
<path d="M0 0 C3.39527689 1.40494216 5.30647023 2.69761694 7 6 C7.35125098 9.03156614 7.44934653 11.97712336 7 15 C6.34 15.66 5.68 16.32 5 17 C4.67 12.71 4.34 8.42 4 4 C2.68 3.67 1.36 3.34 0 3 C0 2.01 0 1.02 0 0 Z " fill="#D3F7FB" transform="translate(263,209)"/>
<path d="M0 0 C1.125 3.75 1.125 3.75 0 6 C-0.23235944 8.26765601 -0.38101703 10.53361414 -0.5234375 12.80859375 C-1.08682547 15.39925484 -1.99145857 16.32979577 -4 18 C-4.53449652 10.75460274 -3.71607548 6.27087737 0 0 Z " fill="#5CAABA" transform="translate(290,206)"/>
<path d="M0 0 C1.21236328 0.02707031 1.21236328 0.02707031 2.44921875 0.0546875 C3.37154297 0.08949219 3.37154297 0.08949219 4.3125 0.125 C3.9825 1.115 3.6525 2.105 3.3125 3.125 C1.85614629 3.34674933 0.39727044 3.55198698 -1.0625 3.75 C-1.87460937 3.86601562 -2.68671875 3.98203125 -3.5234375 4.1015625 C-4.23757813 4.10929688 -4.95171875 4.11703125 -5.6875 4.125 C-6.3475 3.465 -7.0075 2.805 -7.6875 2.125 C-4.48369983 -0.01086678 -3.66810033 -0.10632175 0 0 Z " fill="#249FB9" transform="translate(305.6875,201.875)"/>
<path d="M0 0 C0.66 0 1.32 0 2 0 C2.69670416 1.78810766 3.38211189 3.58062052 4.0625 5.375 C4.63677734 6.87160156 4.63677734 6.87160156 5.22265625 8.3984375 C6 11 6 11 5 13 C4.38125 12.360625 3.7625 11.72125 3.125 11.0625 C1.17402388 8.96116416 1.17402388 8.96116416 -1 8 C-0.67 5.36 -0.34 2.72 0 0 Z " fill="#4EA143" transform="translate(151,192)"/>
<path d="M0 0 C0.99 0 1.98 0 3 0 C3.08333357 4.8333472 2.95261487 9.23692563 2 14 C1.67 14 1.34 14 1 14 C0.67 12.35 0.34 10.7 0 9 C-0.33 9 -0.66 9 -1 9 C-1.09765625 2.84765625 -1.09765625 2.84765625 -1 1 C-0.67 0.67 -0.34 0.34 0 0 Z " fill="#D4F5CF" transform="translate(87,193)"/>
<path d="M0 0 C0.33 0 0.66 0 1 0 C0.125 6.75 0.125 6.75 -1 9 C-4.96 8.67 -8.92 8.34 -13 8 C-12.67 7.01 -12.34 6.02 -12 5 C-12 5.66 -12 6.32 -12 7 C-8.7 7 -5.4 7 -2 7 C-1.855625 6.21625 -1.71125 5.4325 -1.5625 4.625 C-1 2 -1 2 0 0 Z " fill="#DCF5F8" transform="translate(352,247)"/>
<path d="M0 0 C2.69082872 0.17635452 5.32851446 0.61835921 8 1 C8 1.66 8 2.32 8 3 C5.03 3 2.06 3 -1 3 C-1.33 4.32 -1.66 5.64 -2 7 C-3.32 5.68 -4.64 4.36 -6 3 C-5.195625 2.690625 -4.39125 2.38125 -3.5625 2.0625 C-1.10919595 1.23664655 -1.10919595 1.23664655 0 0 Z " fill="#D8FBFD" transform="translate(318,197)"/>
<path d="M0 0 C-0.8353125 0.37125 -0.8353125 0.37125 -1.6875 0.75 C-5.63317701 2.88279838 -8.92013493 5.75803677 -12 9 C-12.3125 6.75 -12.3125 6.75 -12 4 C-8.2996981 -0.14882334 -5.40488073 -0.42391221 0 0 Z " fill="#D3F2F6" transform="translate(310,208)"/>
<path d="M0 0 C4.70812221 0.0784687 9.19917503 0.25595297 13.828125 1.23046875 C13.828125 1.56046875 13.828125 1.89046875 13.828125 2.23046875 C1.15842113 3.56304278 1.15842113 3.56304278 -4.171875 2.23046875 C-2.171875 0.23046875 -2.171875 0.23046875 0 0 Z " fill="#3C97AB" transform="translate(90.171875,232.76953125)"/>
<path d="M0 0 C2.89328414 1.29698944 5.04936672 2.47304325 7 5 C7.29296875 7.69921875 7.29296875 7.69921875 7.1875 10.6875 C7.16042969 11.68136719 7.13335937 12.67523438 7.10546875 13.69921875 C7.07066406 14.45847656 7.03585937 15.21773437 7 16 C6.67 16 6.34 16 6 16 C5.98582031 15.39671875 5.97164063 14.7934375 5.95703125 14.171875 C5.73136804 8.75247909 5.73136804 8.75247909 2.4375 4.625 C1.633125 4.08875 0.82875 3.5525 0 3 C0 2.01 0 1.02 0 0 Z " fill="#D9F9FC" transform="translate(310,209)"/>
<path d="M0 0 C0.33 1.32 0.66 2.64 1 4 C0.38125 4.226875 -0.2375 4.45375 -0.875 4.6875 C-3.64128237 6.39608617 -3.90241056 7.99992221 -5 11 C-6.625 12.8125 -6.625 12.8125 -8 14 C-7.46274105 10.62294375 -6.88935377 7.303314 -6 4 C-4.35 4 -2.7 4 -1 4 C-0.67 2.68 -0.34 1.36 0 0 Z " fill="#E4F7E1" transform="translate(194,204)"/>
<path d="M0 0 C2.97 0 5.94 0 9 0 C9 0.99 9 1.98 9 3 C6.36 3 3.72 3 1 3 C1 5.31 1 7.62 1 10 C0.67 10 0.34 10 0 10 C0 6.7 0 3.4 0 0 Z " fill="#4298A8" transform="translate(240,200)"/>
<path d="M0 0 C5 2 5 2 7 4 C4.03 3.505 4.03 3.505 1 3 C1 7.95 1 12.9 1 18 C0.67 18 0.34 18 0 18 C0 12.06 0 6.12 0 0 Z " fill="#C5F7FA" transform="translate(249,236)"/>
<path d="M0 0 C7.26 0.33 14.52 0.66 22 1 C22 1.33 22 1.66 22 2 C11.11 2.495 11.11 2.495 0 3 C0 2.01 0 1.02 0 0 Z " fill="#E2FAF8" transform="translate(74,239)"/>
<path d="M0 0 C0.8971875 0.309375 0.8971875 0.309375 1.8125 0.625 C-2.28404084 3.87398067 -5.17144824 4.75507859 -10.375 4.6875 C-11.72658203 4.67396484 -11.72658203 4.67396484 -13.10546875 4.66015625 C-13.79253906 4.64855469 -14.47960937 4.63695312 -15.1875 4.625 C-15.1875 4.295 -15.1875 3.965 -15.1875 3.625 C-14.50042969 3.50382813 -13.81335938 3.38265625 -13.10546875 3.2578125 C-11.75388672 3.00644531 -11.75388672 3.00644531 -10.375 2.75 C-9.48167969 2.58757812 -8.58835937 2.42515625 -7.66796875 2.2578125 C-4.60298873 1.47588059 -3.17618869 -0.54448949 0 0 Z " fill="#439AAA" transform="translate(271.1875,235.375)"/>
<path d="M0 0 C1.06351675 3.38391693 1.21442982 4.5804634 -0.4375 7.8125 C-0.953125 8.534375 -1.46875 9.25625 -2 10 C-2.185625 9.1646875 -2.185625 9.1646875 -2.375 8.3125 C-3.05976855 5.77885636 -3.99133763 3.42078968 -5 1 C-3 0 -3 0 0 0 Z " fill="#2D99AD" transform="translate(351,230)"/>
<path d="M0 0 C0.99 0 1.98 0 3 0 C3.33 1.98 3.66 3.96 4 6 C3.01 6.495 3.01 6.495 2 7 C1.01 6.67 0.02 6.34 -1 6 C-1 6.99 -1 7.98 -1 9 C-1.66 9 -2.32 9 -3 9 C-2.01 6.03 -1.02 3.06 0 0 Z " fill="#3D9EAC" transform="translate(362,203)"/>
<path d="M0 0 C2.125 0.375 2.125 0.375 4 1 C1 3 1 3 -1 3 C-0.67 4.65 -0.34 6.3 0 8 C1.65 8.33 3.3 8.66 5 9 C2 11 2 11 -2 11 C-2.05399736 9.54207116 -2.09279177 8.08357288 -2.125 6.625 C-2.15980469 5.40683594 -2.15980469 5.40683594 -2.1953125 4.1640625 C-2 2 -2 2 0 0 Z " fill="#D8FAD3" transform="translate(102,195)"/>
<path d="M0 0 C0.90105469 0.01804688 1.80210937 0.03609375 2.73046875 0.0546875 C3.41753906 0.07789063 4.10460937 0.10109375 4.8125 0.125 C5.4725 1.445 6.1325 2.765 6.8125 4.125 C-0.6125 3.135 -0.6125 3.135 -8.1875 2.125 C-4.87379 -0.08414 -3.8428979 -0.09981553 0 0 Z " fill="#3A97A9" transform="translate(307.1875,199.875)"/>
<path d="M0 0 C0 0.33 0 0.66 0 1 C-1.216875 1.2475 -2.43375 1.495 -3.6875 1.75 C-7.58359258 2.7049925 -10.04299824 4.22781085 -13 7 C-13.33 5.68 -13.66 4.36 -14 3 C-9.43672206 -0.53286034 -5.50366792 -0.32374517 0 0 Z " fill="#59A14F" transform="translate(232,184)"/>
<path d="M0 0 C1.485 0.99 1.485 0.99 3 2 C5.67145537 1.19838209 5.67145537 1.19838209 8 0 C8 1.65 8 3.3 8 5 C5.36 5 2.72 5 0 5 C0 3.35 0 1.7 0 0 Z " fill="#449938" transform="translate(201,234)"/>
<path d="M0 0 C5.94 0 11.88 0 18 0 C15.08596738 1.94268841 12.14191424 3.46395304 9 5 C9 3.68 9 2.36 9 1 C6.03 1 3.06 1 0 1 C0 0.67 0 0.34 0 0 Z " fill="#CDF5FA" transform="translate(240,199)"/>
<path d="M0 0 C1.79453113 3.58906225 2.29343623 4.80693713 2.3125 8.5625 C2.33763672 9.70912109 2.33763672 9.70912109 2.36328125 10.87890625 C2 13 2 13 -1 16 C-0.67 10.72 -0.34 5.44 0 0 Z " fill="#B4EAD1" transform="translate(67,165)"/>
<path d="M0 0 C1.32 0.33 2.64 0.66 4 1 C3.67 1.33 3.34 1.66 3 2 C2.76712992 3.68183948 2.58735834 5.3712416 2.4375 7.0625 C2.31181641 8.44115234 2.31181641 8.44115234 2.18359375 9.84765625 C2.12300781 10.55792969 2.06242188 11.26820313 2 12 C1.34 12 0.68 12 0 12 C0 8.04 0 4.08 0 0 Z " fill="#4A9CAD" transform="translate(247,212)"/>
<path d="M0 0 C1.22589844 0.01353516 1.22589844 0.01353516 2.4765625 0.02734375 C3.41628906 0.04474609 3.41628906 0.04474609 4.375 0.0625 C4.045 0.7225 3.715 1.3825 3.375 2.0625 C-0.09825181 3.2202506 -2.98567448 3.13116652 -6.625 3.0625 C-6.625 2.4025 -6.625 1.7425 -6.625 1.0625 C-4.21954362 -0.14022819 -2.67503047 -0.03821472 0 0 Z " fill="#60975A" transform="translate(68.625,247.9375)"/>
<path d="M0 0 C0.33 0 0.66 0 1 0 C1 3.96 1 7.92 1 12 C-0.32 12 -1.64 12 -3 12 C-2.40075776 7.80530429 -1.42500059 3.99000166 0 0 Z " fill="#DBF9D6" transform="translate(142,206)"/>
<path d="M0 0 C3 1 3 1 3.94921875 2.671875 C5.33170943 6.56333025 6.39357798 9.80183483 6 14 C3.74402173 11.74402173 3.03425808 9.95396133 1.875 7 C1.52179688 6.113125 1.16859375 5.22625 0.8046875 4.3125 C0 2 0 2 0 0 Z " fill="#D6F6F8" transform="translate(343,200)"/>
<path d="M0 0 C2.46301423 2.46301423 2.76766521 4.27360036 3.625 7.625 C3.88539062 8.62789062 4.14578125 9.63078125 4.4140625 10.6640625 C4.60742188 11.43492187 4.80078125 12.20578125 5 13 C4.01 13.495 4.01 13.495 3 14 C2.3012307 12.23358317 1.61633417 10.46167336 0.9375 8.6875 C0.55464844 7.70136719 0.17179687 6.71523437 -0.22265625 5.69921875 C-1 3 -1 3 0 0 Z " fill="#B2EEA9" transform="translate(42,184)"/>
<path d="M0 0 C2.8125 -0.25 2.8125 -0.25 6 0 C8.467339 2.2206051 8.96152446 3.43569203 9.1875 6.75 C9.125625 7.4925 9.06375 8.235 9 9 C5 4.25 5 4.25 5 2 C3.35 1.67 1.7 1.34 0 1 C0 0.67 0 0.34 0 0 Z " fill="#5D9F53" transform="translate(202,184)"/>
<path d="M0 0 C0.66 0 1.32 0 2 0 C2.66 4.29 3.32 8.58 4 13 C3.01 12.01 2.02 11.02 1 10 C1 8.68 1 7.36 1 6 C0.34 5.67 -0.32 5.34 -1 5 C-0.67 3.35 -0.34 1.7 0 0 Z " fill="#DEF9D9" transform="translate(144,201)"/>
<path d="M0 0 C0.99 0.33 1.98 0.66 3 1 C1.68 4.3 0.36 7.6 -1 11 C-1.33 11 -1.66 11 -2 11 C-2.25 3.375 -2.25 3.375 0 0 Z " fill="#E6FBE2" transform="translate(137,186)"/>
<path d="M0 0 C0.66 0 1.32 0 2 0 C2 0.99 2 1.98 2 3 C-2.86051596 5.59227518 -7.65271133 5.18689553 -13 5 C-13 4.67 -13 4.34 -13 4 C-11.84371094 3.81824219 -11.84371094 3.81824219 -10.6640625 3.6328125 C-9.66117187 3.46523437 -8.65828125 3.29765625 -7.625 3.125 C-6.12839844 2.88136719 -6.12839844 2.88136719 -4.6015625 2.6328125 C-1.8574885 2.2041198 -1.8574885 2.2041198 0 0 Z " fill="#CBF1F5" transform="translate(315,236)"/>
<path d="M0 0 C0.33 0 0.66 0 1 0 C1.33 2.97 1.66 5.94 2 9 C0.35 9.33 -1.3 9.66 -3 10 C-2.01 6.7 -1.02 3.4 0 0 Z " fill="#599F4D" transform="translate(123,228)"/>
<path d="M0 0 C2.25 0.25 2.25 0.25 4 1 C3.67 1.99 3.34 2.98 3 4 C-0.5625 5.1875 -0.5625 5.1875 -4 6 C-4 4 -4 4 -2.25 1.8125 C-1.5075 1.214375 -0.765 0.61625 0 0 Z " fill="#36A623" transform="translate(135,221)"/>
<path d="M0 0 C1.33895632 1.66215268 2.67130142 3.32963607 4 5 C4.5775 5.721875 5.155 6.44375 5.75 7.1875 C7 9 7 9 7 11 C5.68 10.67 4.36 10.34 3 10 C2.67 8.02 2.34 6.04 2 4 C1.34 4 0.68 4 0 4 C0 2.68 0 1.36 0 0 Z " fill="#D7F6D1" transform="translate(25,181)"/>
<path d="M0 0 C3.96 0 7.92 0 12 0 C10.35 1.65 8.7 3.3 7 5 C7 3.68 7 2.36 7 1 C4.69 1 2.38 1 0 1 C0 0.67 0 0.34 0 0 Z " fill="#D0F9C9" transform="translate(176,199)"/>
<path d="M0 0 C0.99 0.33 1.98 0.66 3 1 C1.5625 3 1.5625 3 -1 5 C-4.02824418 5.35442445 -6.96485939 5.23347235 -10 5 C-10 4.67 -10 4.34 -10 4 C-7.36 4 -4.72 4 -2 4 C-1.34 2.68 -0.68 1.36 0 0 Z " fill="#CFF6F9" transform="translate(265,226)"/>
<path d="M0 0 C3.625 -0.1875 3.625 -0.1875 7 0 C7.33 0.66 7.66 1.32 8 2 C7.01 3.485 7.01 3.485 6 5 C6 4.01 6 3.02 6 2 C3.36 2.33 0.72 2.66 -2 3 C-1.34 2.01 -0.68 1.02 0 0 Z " fill="#64A15A" transform="translate(188,199)"/>
<path d="M0 0 C2 2 2 2 2.046875 3.91015625 C1.94890625 4.62042969 1.8509375 5.33070313 1.75 6.0625 C1.61851563 7.13177734 1.61851563 7.13177734 1.484375 8.22265625 C1.32453125 8.80917969 1.1646875 9.39570313 1 10 C0.01 10.495 0.01 10.495 -1 11 C-1.02688151 9.35425434 -1.04634123 7.70838587 -1.0625 6.0625 C-1.07410156 5.14597656 -1.08570312 4.22945312 -1.09765625 3.28515625 C-1 1 -1 1 0 0 Z " fill="#CBF7EB" transform="translate(69,158)"/>
<path d="M0 0 C0.66 0.66 1.32 1.32 2 2 C-0.625 7.75 -0.625 7.75 -4 10 C-4 6 -4 6 -2.5625 4.4375 C-2.046875 3.963125 -1.53125 3.48875 -1 3 C-0.67 2.01 -0.34 1.02 0 0 Z " fill="#4599A9" transform="translate(277,225)"/>
<path d="M0 0 C0.99 0 1.98 0 3 0 C3.125 3.375 3.125 3.375 3 7 C2.34 7.66 1.68 8.32 1 9 C0.67 6.03 0.34 3.06 0 0 Z " fill="#AAE0CE" transform="translate(60,226)"/>
<path d="M0 0 C2 1 2 1 2.8515625 3.06640625 C3.10679687 3.89011719 3.36203125 4.71382812 3.625 5.5625 C3.88539063 6.38878906 4.14578125 7.21507812 4.4140625 8.06640625 C4.60742188 8.70449219 4.80078125 9.34257812 5 10 C4.34 10 3.68 10 3 10 C0.96564469 6.27034861 0 4.33094958 0 0 Z " fill="#4E9EB0" transform="translate(345,208)"/>
<path d="M0 0 C2.18975773 3.28463659 2.99806563 6.20696275 4 10 C3.01 10 2.02 10 1 10 C1.33 8.68 1.66 7.36 2 6 C1.01 6.33 0.02 6.66 -1 7 C-0.67 4.69 -0.34 2.38 0 0 Z " fill="#5EA853" transform="translate(157,205)"/>
<path d="M0 0 C0.66 0.66 1.32 1.32 2 2 C1.875 3.9375 1.875 3.9375 1 6 C-1.0625 7.75 -1.0625 7.75 -3 9 C-2.01 6.03 -1.02 3.06 0 0 Z " fill="#D6F7F9" transform="translate(370,208)"/>
<path d="M0 0 C2.31 0 4.62 0 7 0 C7.33 1.65 7.66 3.3 8 5 C2.25 3.375 2.25 3.375 0 0 Z " fill="#73A66A" transform="translate(100,192)"/>
<path d="M0 0 C1.65 0 3.3 0 5 0 C5 4.29 5 8.58 5 13 C4.67 13 4.34 13 4 13 C3.96261719 12.31292969 3.92523438 11.62585938 3.88671875 10.91796875 C3.82097656 10.01691406 3.75523438 9.11585938 3.6875 8.1875 C3.62949219 7.29417969 3.57148437 6.40085938 3.51171875 5.48046875 C2.93686419 2.69396 2.1793144 1.75864246 0 0 Z " fill="#B0DFE4" transform="translate(117,159)"/>
<path d="M0 0 C0.33 0 0.66 0 1 0 C1 2.31 1 4.62 1 7 C-0.98 7.99 -0.98 7.99 -3 9 C-2.01 6.03 -1.02 3.06 0 0 Z " fill="#5AA74E" transform="translate(127,218)"/>
<path d="M0 0 C2.20319677 4.40639354 3.10924981 6.97450871 3 12 C0.13700494 9.13700494 0.00578775 7.34147716 -0.0625 3.3125 C-0.041875 2.219375 -0.02125 1.12625 0 0 Z " fill="#48973D" transform="translate(39,168)"/>
<path d="M0 0 C2.6855594 2.6855594 3.06049974 5.37621328 4 9 C3.01 9 2.02 9 1 9 C0.67 6.03 0.34 3.06 0 0 Z " fill="#59A34D" transform="translate(164,224)"/>
<path d="M0 0 C0.33 0.66 0.66 1.32 1 2 C1.66 2.33 2.32 2.66 3 3 C3 5.66666667 3 8.33333333 3 11 C0.81024227 7.71536341 0.00193437 4.79303725 -1 1 C-0.67 0.67 -0.34 0.34 0 0 Z " fill="#509E43" transform="translate(157,227)"/>
<path d="M0 0 C0.33 1.32 0.66 2.64 1 4 C-1.64 4 -4.28 4 -7 4 C-7 3.01 -7 2.02 -7 1 C-4.69 1.66 -2.38 2.32 0 3 C0 2.01 0 1.02 0 0 Z " fill="#DCF4D7" transform="translate(106,207)"/>
<path d="M0 0 C0.99 0.33 1.98 0.66 3 1 C4.1875 3.5625 4.1875 3.5625 5 6 C4.34 6 3.68 6 3 6 C2.67 6.66 2.34 7.32 2 8 C1.34 5.36 0.68 2.72 0 0 Z " fill="#EFFDED" transform="translate(92,190)"/>
<path d="M0 0 C0.33 0 0.66 0 1 0 C1.33 3.96 1.66 7.92 2 12 C1.01 11.67 0.02 11.34 -1 11 C-0.67 7.37 -0.34 3.74 0 0 Z " fill="#A7E1C3" transform="translate(65,183)"/>
<path d="M0 0 C0.99 0 1.98 0 3 0 C3 1.65 3 3.3 3 5 C1.68 4.67 0.36 4.34 -1 4 C-0.67 2.68 -0.34 1.36 0 0 Z " fill="#36A527" transform="translate(37,183)"/>
<path d="M0 0 C0.66 0 1.32 0 2 0 C0.25 5.75 0.25 5.75 -2 8 C-2.125 5.125 -2.125 5.125 -2 2 C-1.34 1.34 -0.68 0.68 0 0 Z " fill="#DCF8FC" transform="translate(342,243)"/>
<path d="M0 0 C1.32 0.33 2.64 0.66 4 1 C4 2.65 4 4.3 4 6 C2.68 5.67 1.36 5.34 0 5 C0 3.35 0 1.7 0 0 Z " fill="#E5F9E2" transform="translate(195,199)"/>
<path d="M0 0 C0.33 0 0.66 0 1 0 C1 2.31 1 4.62 1 7 C-0.32 7 -1.64 7 -3 7 C-3 6.34 -3 5.68 -3 5 C-2.34 5 -1.68 5 -1 5 C-0.67 3.35 -0.34 1.7 0 0 Z " fill="#CFEFCA" transform="translate(82,191)"/>
<path d="M0 0 C-0.33 2.31 -0.66 4.62 -1 7 C-2.37562854 5.71034824 -3.70766393 4.37310707 -5 3 C-5 2.34 -5 1.68 -5 1 C-2 0 -2 0 0 0 Z " fill="#609E56" transform="translate(28,176)"/>
</svg>
