<svg width="60" height="60" viewBox="0 0 78 47" fill="none" xmlns="http://www.w3.org/2000/svg">
<path d="M37.7299 6.36149C37.7299 4.47789 35.7967 2.94531 33.4203 2.94531C31.0447 2.94531 29.1121 4.47776 29.1121 6.36149C29.1121 8.24522 31.0447 9.77767 33.4203 9.77767C35.7967 9.77767 37.7299 8.24522 37.7299 6.36149ZM30.7138 6.36149C30.7138 5.17791 31.9279 4.21484 33.4204 4.21484C34.9136 4.21484 36.1285 5.17778 36.1285 6.36149C36.1285 7.5452 34.9137 8.50814 33.4204 8.50814C31.9279 8.50814 30.7138 7.5452 30.7138 6.36149Z" fill="black"/>
<path d="M34.0199 16.2329C34.7606 15.5696 41.258 9.65967 41.258 6.43239C41.258 3.00732 37.7419 0.220703 33.4203 0.220703C29.0994 0.220703 25.584 3.0072 25.584 6.43239C25.584 9.65954 32.0799 15.5696 32.8206 16.2328L33.4201 16.7697L34.0199 16.2329ZM27.1857 6.43252C27.1857 3.70747 29.9825 1.49036 33.4204 1.49036C36.859 1.49036 39.6566 3.70734 39.6566 6.43252C39.6566 8.54438 35.5933 12.7986 33.4204 14.8404C31.2479 12.799 27.1857 8.54591 27.1857 6.43252Z" fill="black"/>
<path d="M13.0369 36.0332H5.31836V37.3027H13.0369V36.0332Z" fill="black"/>
<path d="M3.45279 36.0332H0.929688V37.3027H3.45279V36.0332Z" fill="black"/>
<path d="M13.0375 39.502H8.37891V40.7715H13.0375V39.502Z" fill="black"/>
<path d="M28.9067 26.5625H24.803V27.832H28.9067V26.5625Z" fill="black"/>
<path d="M4.85742 13.693V25.7798H6.61177H11.1488L19.6062 30.8235C19.5809 30.9999 19.5601 31.1786 19.545 31.36C17.1296 33.024 15.6353 35.3079 15.6353 37.8251V40.4887H18.542C18.7806 42.5602 20.1744 44.3698 22.2075 45.51H10.9893V46.7795H40.7784V45.51H32.2712C33.2871 44.9403 34.1431 44.2039 34.7757 43.3505H40.1552L42.7212 42.3007C43.4287 42.6058 44.2389 42.7793 45.0989 42.7793H56.6923L57.0708 42.779L57.311 42.5477C57.3248 42.5343 57.5945 42.2792 58.093 41.8728C58.7253 43.3857 60.0015 44.6613 61.6463 45.51H48.1456V46.7795H77.0706V45.51H71.1523C73.5432 44.2732 75.1277 42.1356 75.1277 39.7089C75.1277 38.1715 74.4749 36.6846 73.3053 35.4799C74.1415 35.395 75.0017 35.3483 75.8845 35.3483C76.5557 35.3483 76.778 34.9856 76.83 34.8744C77.0972 34.3047 76.463 33.8712 75.503 33.215C75.2869 33.0672 75.0827 32.9278 74.9645 32.8336C73.0371 31.3044 70.6102 30.3181 67.9774 29.9643L61.4145 17.2159H63.3928V16.6208H63.5571C64.966 16.6208 66.1121 15.7123 66.1121 14.5956V14.5521C66.1121 13.4354 64.966 12.5268 63.5571 12.5268H63.3928V11.9316H57.8533C56.0136 11.9316 54.5168 13.1181 54.5168 14.5765V15.8054C54.5168 15.853 54.52 15.8998 54.5257 15.9462H53.5499L50.1434 13.2457H46.1423V14.5153H49.48L52.8865 17.2157H56.0997L54.3222 21.4858L56.7224 32.7564C55.5424 33.6698 54.5776 34.761 53.9009 35.9791H44.8097C44.3784 35.2783 44.0292 34.5486 43.7661 33.7934C42.5846 30.3998 43.4871 27.4025 44.2551 25.7318C45.0906 25.565 45.7115 24.966 45.7115 24.2528C45.7115 22.174 43.5779 20.4827 40.9554 20.4827H24.4708C22.6285 20.4827 21.1296 21.6707 21.1296 23.1312C21.1296 23.6366 21.3124 24.1078 21.6237 24.5102H20.1054V13.693H4.85742ZM6.45898 24.5103V14.9625H18.5039V24.5103H6.61177H6.45898ZM17.2369 37.825C17.2369 33.4474 22.593 29.8857 29.1765 29.8857H32.202C36.5581 29.8857 40.102 32.2278 40.102 35.1066V38.1775V38.8123V39.2191H35.9396C35.5341 35.6968 31.7875 32.9283 27.2407 32.9283C22.6931 32.9283 18.9459 35.6968 18.5404 39.2191H17.237L17.2369 37.825ZM20.1515 39.2191C20.551 36.3982 23.5771 34.1978 27.2405 34.1978C30.9033 34.1978 33.9288 36.3982 34.3281 39.2191H20.1515ZM29.6019 40.4886C29.2672 41.2686 28.3362 41.8319 27.2405 41.8319C26.1443 41.8319 25.2128 41.2685 24.8779 40.4886H29.6019ZM27.2389 45.5098C23.5762 45.5098 20.5507 43.3095 20.1514 40.4886H23.2211C23.5947 41.9765 25.2546 43.1014 27.2405 43.1014C29.2257 43.1014 30.8851 41.9765 31.2585 40.4886H34.3281C34.249 41.0478 34.0672 41.5827 33.7969 42.0809H30.9584V43.3504H32.841C31.5334 44.6641 29.509 45.5098 27.2389 45.5098ZM39.7665 42.0809H35.5096C35.7275 41.5735 35.8738 41.0407 35.9373 40.4886H40.5713C40.7747 40.833 41.0383 41.1503 41.3514 41.4325L39.7665 42.0809ZM73.5263 39.7087C73.5263 42.8268 70.3255 45.3635 66.3911 45.3635C63.0207 45.3635 60.0921 43.4541 59.4079 40.8705C60.2017 40.3025 61.2066 39.6445 62.3972 38.9845C62.33 39.2175 62.2935 39.4595 62.2935 39.7085C62.2935 41.4994 64.1316 42.9566 66.3911 42.9566C68.6505 42.9566 70.4886 41.4994 70.4886 39.7085C70.4886 38.2997 69.3512 37.0979 67.7663 36.649C68.9242 36.2764 70.1599 35.9598 71.4659 35.7327C72.7797 36.7896 73.5263 38.221 73.5263 39.7087ZM64.5965 38.3365L65.6796 39.9996L67.1026 39.4172L66.0196 37.7542C66.1412 37.7397 66.2645 37.7298 66.3911 37.7298C67.7674 37.7298 68.8871 38.6174 68.8871 39.7085C68.8871 40.7995 67.7674 41.687 66.3911 41.687C65.0147 41.687 63.895 40.7995 63.895 39.7085C63.895 39.1758 64.1631 38.6926 64.5965 38.3365ZM63.5572 13.7963C64.083 13.7963 64.5107 14.1353 64.5107 14.5521V14.5956C64.5107 15.0123 64.083 15.3512 63.5572 15.3512H63.3929V13.7963H63.5572ZM56.1185 15.8055V14.5766C56.1185 13.8182 56.8967 13.2013 57.8534 13.2013H61.7914V15.9464H57.8374H56.2961C56.1981 15.9463 56.1185 15.8831 56.1185 15.8055ZM55.9676 21.5849L57.786 17.2164H59.6852L66.175 29.8231C66.045 29.8202 65.9154 29.8155 65.7847 29.8155C62.953 29.8155 60.303 30.5521 58.144 31.8045L55.9676 21.5849ZM65.7849 31.0851C68.8237 31.0851 71.6812 32.0246 73.831 33.7304C73.9732 33.8434 74.167 33.9774 74.3755 34.1204C68.9092 34.4223 64.4157 36.3064 61.518 37.9083C58.7635 39.4311 56.9607 40.9425 56.3257 41.5097H45.0989C43.5044 41.5097 42.1634 40.6322 41.8003 39.453H47.8125L47.806 39.4468L54.4175 39.4466L54.511 38.8967C55.2698 34.4434 60.1165 31.0851 65.7849 31.0851ZM53.3191 37.2488C53.208 37.5526 53.113 37.8619 53.0369 38.1772L46.5272 38.1774C46.2357 37.8755 45.963 37.5656 45.7083 37.2489H53.3191V37.2488ZM44.559 38.1774L41.7034 38.1775V35.1066C41.7034 31.5279 37.4411 28.6162 32.2019 28.6162H29.1763C26.2458 28.6162 23.5321 29.2546 21.3135 30.3349C21.7774 28.2383 22.9559 26.6128 23.6731 25.7802H42.5403C41.7632 27.6713 41.033 30.7146 42.2225 34.1312C42.7241 35.572 43.5079 36.9281 44.559 38.1774ZM24.4708 21.7524H40.9555C42.695 21.7524 44.1101 22.8741 44.1101 24.2529C44.1101 24.3948 43.9645 24.5103 43.7855 24.5103H24.4708C23.5116 24.5103 22.7312 23.8916 22.7312 23.1313C22.7312 22.371 23.5116 21.7524 24.4708 21.7524ZM21.7792 25.7798C21.1275 26.6568 20.3697 27.9072 19.9164 29.4198L13.8129 25.7798H20.1054H21.7792Z" fill="black"/>
<path d="M17.0754 16.4766H12.4814V17.7461H17.0754V16.4766Z" fill="black"/>
<path d="M45.7968 45.5098H43.0225V46.7793H45.7968V45.5098Z" fill="black"/>
<path d="M9.14708 45.5098H6.61133V46.7793H9.14708V45.5098Z" fill="black"/>
</svg>
