<svg width="60" height="60" viewBox="0 0 53 36" fill="none" xmlns="http://www.w3.org/2000/svg">
<path d="M52.4445 16.5654C52.0578 11.5373 47.7399 9.34284 46.5002 8.81363V3.46875C46.5002 1.65966 44.9299 0.1875 43.0002 0.1875H4.00001C2.07031 0.1875 0.5 1.65966 0.5 3.46875V22.2188C0.5 24.0278 2.07031 25.5 4.00001 25.5H23.6207C22.9356 26.1317 22.2589 26.8138 21.6144 27.5452C21.4621 27.7183 21.4621 27.9691 21.6144 28.1422C25.8693 32.9734 31.5382 35.6513 31.7775 35.763C31.8478 35.796 31.924 35.8124 32.0002 35.8124C32.0915 35.8124 32.1833 35.7886 32.2634 35.7419C32.4109 35.6568 32.5002 35.5057 32.5002 35.3437V33.0128C34.529 33.0494 41.8401 32.9642 45.9022 30.3605C48.6083 28.6255 53.0568 24.5268 52.4445 16.5654ZM4.00001 24.5626C2.62161 24.5626 1.5 23.5116 1.5 22.2188V3.46884C1.5 2.17613 2.62161 1.12509 4.00001 1.12509H43.0002C44.3786 1.12509 45.5002 2.17613 45.5002 3.46884L45.5026 9.07641C45.4992 9.10847 45.4992 9.14053 45.5026 9.1725L45.505 14.0175C45.4982 14.0633 44.7618 18.6116 38.4761 21.4022C36.2622 22.3864 33.5908 22.6144 32.5 22.6674V20.3438C32.5 20.1817 32.4106 20.0307 32.2632 19.9456C32.1162 19.8605 31.9321 19.8513 31.7774 19.9245C31.5928 20.0106 28.1861 21.6191 24.6861 24.5626H4.00001ZM45.3376 29.5861C40.9669 32.3886 32.1109 32.069 32.0216 32.0626C31.8888 32.0645 31.753 32.1047 31.6544 32.1926C31.5558 32.2814 31.5001 32.4032 31.5001 32.5313V34.5565C29.881 33.6978 25.8565 31.3604 22.6529 27.8438C25.8565 24.3273 29.8809 21.99 31.5001 21.1312V23.1517C31.5001 23.4109 31.7237 23.6205 32.0001 23.6205C32.1559 23.6205 35.8541 23.6049 38.9044 22.25C45.6735 19.2443 46.465 14.3527 46.5002 14.0816V9.85285C47.9211 10.5413 51.1325 12.539 51.4475 16.6332C52.0237 24.1268 47.8669 27.9656 45.3376 29.5861ZM26.5807 16.3045C27.1852 15.3267 27.1461 14.1732 26.4733 13.1386C26.0382 12.4685 25.2692 11.9905 24.5216 11.5264C23.8282 11.0943 23.4347 10.8113 23.3795 10.7702C23.3609 10.6511 23.4039 10.5413 23.4508 10.4909C23.4664 10.4735 23.4806 10.4588 23.5504 10.4543C23.7203 10.4561 23.819 10.5586 23.8185 10.5578C24.2789 11.1556 25.1789 11.3231 25.8678 10.9386C26.5494 10.5586 26.7579 9.76575 26.3522 9.09375C26.0443 8.58375 25.1827 7.88953 23.941 7.7791C23.9251 7.70991 23.9121 7.65066 23.9079 7.61541C23.8355 7.19925 23.1569 7.20666 23.0873 7.61541L23.0457 7.81463C22.2889 7.92506 21.6113 8.25047 21.1242 8.77228C20.5202 9.42047 20.2512 10.2838 20.3859 11.1408C20.5749 12.353 21.8044 13.1174 22.7951 13.7345C23.1047 13.9268 23.7492 14.3277 23.8566 14.4862C23.9494 14.6289 24.0378 14.8358 23.9318 15.0062C23.8483 15.1417 23.6696 15.2277 23.4347 15.2433C23.2399 15.2469 22.9015 14.9714 22.7658 14.7764C22.3405 14.1456 21.4435 13.9378 20.7219 14.3013C20.0515 14.64 19.8152 15.3587 20.134 16.0902C20.4878 16.9 21.6638 17.7597 23.0363 17.9036L23.0873 18.1481C23.1569 18.5569 23.8355 18.5644 23.9079 18.1481C23.9142 18.0956 23.9395 17.9888 23.9662 17.8729C25.0838 17.7182 26.0515 17.1593 26.5807 16.3045ZM21.0597 15.7351C21.0016 15.6023 20.8991 15.2773 21.1964 15.1272C21.2814 15.0842 21.3761 15.0631 21.4693 15.0631C21.6509 15.0631 21.8287 15.1418 21.9249 15.2838C21.9317 15.293 22.5997 16.2359 23.5103 16.1783C24.0752 16.1416 24.5445 15.8862 24.7964 15.477C25.0679 15.0394 25.0361 14.5011 24.7105 13.9993C24.5098 13.6908 24.0196 13.3713 23.3448 12.951C22.4801 12.4136 21.4996 11.8039 21.3751 11.0046C21.2833 10.4196 21.4659 9.82997 21.8766 9.38953C22.2496 8.99034 22.7907 8.74772 23.3995 8.70656C24.5382 8.62322 25.294 9.24488 25.482 9.55528C25.5875 9.73106 25.6187 9.98738 25.357 10.133C25.1177 10.2667 24.7838 10.209 24.6187 9.99656C24.5176 9.87478 24.1309 9.47194 23.4839 9.51863C23.1621 9.54056 22.8975 9.65963 22.6973 9.87478C22.4463 10.1449 22.3316 10.5303 22.3902 10.9066C22.4527 11.3021 22.9273 11.6583 23.9727 12.3101C24.625 12.7157 25.2998 13.135 25.6192 13.6267C26.0953 14.3582 26.1304 15.1629 25.7154 15.834C25.3043 16.4987 24.5103 16.9308 23.5889 16.9903C22.377 17.0672 21.2999 16.2863 21.0597 15.7351ZM12.4995 11.0073C11.3965 11.0073 10.4995 11.8487 10.4995 12.8823C10.4995 13.9159 11.3965 14.7573 12.4995 14.7573C13.6025 14.7573 14.4996 13.9159 14.4996 12.8823C14.4996 11.8487 13.6025 11.0073 12.4995 11.0073ZM12.4995 13.8198C11.9482 13.8198 11.4995 13.3996 11.4995 12.8823C11.4995 12.365 11.9482 11.9448 12.4995 11.9448C13.0508 11.9448 13.4995 12.365 13.4995 12.8823C13.4995 13.3996 13.0508 13.8198 12.4995 13.8198ZM34.5006 14.7573C35.6036 14.7573 36.5006 13.9159 36.5006 12.8823C36.5006 11.8487 35.6036 11.0073 34.5006 11.0073C33.3976 11.0073 32.5006 11.8487 32.5006 12.8823C32.5006 13.9159 33.3976 14.7573 34.5006 14.7573ZM34.5006 11.9448C35.0519 11.9448 35.5006 12.365 35.5006 12.8823C35.5006 13.3996 35.0519 13.8198 34.5006 13.8198C33.9493 13.8198 33.5006 13.3996 33.5006 12.8823C33.5006 12.365 33.9493 11.9448 34.5006 11.9448Z" fill="black"/>
</svg>
