<svg width="60" height="60" viewBox="0 0 40 40" fill="none" xmlns="http://www.w3.org/2000/svg">
<path d="M39.3131 14.9469C39.5827 14.6735 39.7795 14.3606 39.8917 14.0266C40.0039 13.6927 40.0292 13.3445 39.9663 13.0027C39.9033 12.661 39.7533 12.3326 39.5251 12.037C39.2969 11.7414 38.9952 11.4846 38.6378 11.2818L37.2393 10.4881C36.7782 10.2266 36.4114 9.87625 36.1748 9.47107C35.9381 9.0659 35.8396 8.61972 35.8888 8.17594L36.0366 6.82923C36.077 6.48416 36.0281 6.13626 35.8929 5.80628C35.7577 5.4763 35.5389 5.17098 35.2495 4.90855C34.9602 4.64612 34.6062 4.43194 34.2087 4.27878C33.8112 4.12562 33.3784 4.03662 32.936 4.01709L31.2098 3.9421C30.6413 3.91678 30.0909 3.77687 29.612 3.53596C29.133 3.29505 28.742 2.96134 28.4768 2.56728L27.6777 1.37055C27.4704 1.06535 27.1869 0.795789 26.844 0.577872C26.501 0.359954 26.1056 0.198114 25.6811 0.101949C25.2567 0.005784 24.8119 -0.0227472 24.3731 0.0180475C23.9343 0.0588422 23.5104 0.168132 23.1266 0.339435L21.6242 1.00498C21.1283 1.2246 20.568 1.34003 19.998 1.34003C19.428 1.34003 18.8678 1.2246 18.3718 1.00498L16.8694 0.339435C16.4848 0.169104 16.0604 0.0609127 15.6213 0.0212796C15.1823 -0.0183535 14.7375 0.0113792 14.3134 0.108714C13.8893 0.206048 13.4946 0.369002 13.1525 0.587906C12.8105 0.806811 12.5282 1.07721 12.3223 1.38305L11.5232 2.57977C11.258 2.97384 10.867 3.30755 10.388 3.54846C9.90914 3.78937 9.35867 3.92928 8.79016 3.9546L7.06403 4.02959C6.62162 4.04912 6.18877 4.13812 5.79129 4.29128C5.39381 4.44444 5.03984 4.65862 4.75048 4.92105C4.46112 5.18348 4.24231 5.48879 4.10708 5.81878C3.97186 6.14876 3.92299 6.49666 3.96339 6.84173L4.11123 8.18843C4.16041 8.63221 4.06188 9.07839 3.82522 9.48357C3.58856 9.88875 3.22183 10.2391 2.76069 10.5006L1.36221 11.2943C1.00482 11.4971 0.7031 11.7539 0.474908 12.0495C0.246717 12.3451 0.0966963 12.6735 0.0337304 13.0152C-0.0292355 13.357 -0.00386675 13.7052 0.108335 14.0391C0.220536 14.3731 0.417289 14.686 0.686942 14.9594L1.7418 16.0281C2.08998 16.3804 2.31565 16.7973 2.39687 17.238C2.47808 17.6788 2.41209 18.1285 2.2053 18.5434L1.57798 19.7932C1.41761 20.1149 1.3414 20.4584 1.35385 20.8035C1.36631 21.1486 1.46717 21.4882 1.65047 21.8023C1.83377 22.1164 2.09579 22.3985 2.42101 22.632C2.74623 22.8654 3.12804 23.0455 3.54384 23.1615L5.17008 23.6146C5.707 23.7639 6.18535 24.0193 6.55857 24.3561C6.93178 24.6928 7.18713 25.0994 7.29977 25.5362L7.61143 26.7236L3.45994 37.2753L10.0448 35.6631L14.1443 40L17.8883 30.4293C18.4487 30.7931 19.1472 31.0016 19.875 31.0225C20.6027 31.0435 21.3189 30.8755 21.9119 30.545L25.8517 40L29.9512 35.6631L36.5361 37.2753L32.2847 27.0767C32.3126 27.0048 32.3366 26.936 32.3566 26.8611L32.6962 25.5362C32.8089 25.0994 33.0642 24.6928 33.4374 24.3561C33.8106 24.0193 34.289 23.7639 34.8259 23.6146L36.4522 23.1615C36.868 23.0455 37.2498 22.8654 37.575 22.632C37.9002 22.3985 38.1622 22.1164 38.3455 21.8023C38.5288 21.4882 38.6297 21.1486 38.6422 20.8035C38.6546 20.4584 38.5784 20.1149 38.418 19.7932L37.7907 18.5434C37.5839 18.1285 37.5179 17.6788 37.5991 17.238C37.6804 16.7973 37.906 16.3804 38.2542 16.0281L39.3131 14.9469ZM8.59037 15.5156C8.59037 13.7513 9.25942 12.0265 10.5129 10.5595C11.7664 9.09252 13.548 7.94913 15.6325 7.27394C17.717 6.59875 20.0107 6.42209 22.2235 6.7663C24.4364 7.11051 26.469 7.96012 28.0644 9.20771C29.6598 10.4553 30.7463 12.0448 31.1864 13.7753C31.6266 15.5057 31.4007 17.2994 30.5373 18.9294C29.6739 20.5595 28.2117 21.9527 26.3357 22.9329C24.4598 23.9132 22.2542 24.4364 19.998 24.4364C16.9735 24.4339 14.0738 23.4932 11.9351 21.8208C9.79644 20.1484 8.59355 17.8808 8.59037 15.5156Z" fill="black"/>
</svg>
