<svg width="60" height="60" viewBox="0 0 43 37" fill="none" xmlns="http://www.w3.org/2000/svg">
<path d="M32.4333 24.437L30.9667 25.145C30.0333 25.6169 28.9667 25.6169 28.0333 25.145L26.5667 24.437C20.9667 21.6053 17.5 16.7678 17.5 11.4583V6.2668C17.5 4.96893 18.5667 3.90703 20.0333 3.67106C23.2333 3.1991 26.1667 2.1372 27.9 1.31128C28.9667 0.83933 30.0333 0.957319 30.8333 1.31128C32.4333 2.1372 35.2333 3.31709 38.8333 3.67106C40.3 3.78904 41.5 4.96893 41.5 6.2668V11.4583C41.5 16.7678 38.1667 21.6053 32.4333 24.437Z" stroke="black" stroke-width="1.5" stroke-miterlimit="10" stroke-linecap="round" stroke-linejoin="round"/>
<path d="M29.5003 19.717C33.5504 19.717 36.8337 16.8116 36.8337 13.2277C36.8337 9.64367 33.5504 6.73828 29.5003 6.73828C25.4502 6.73828 22.167 9.64367 22.167 13.2277C22.167 16.8116 25.4502 19.717 29.5003 19.717Z" stroke="black" stroke-width="1.5" stroke-miterlimit="10" stroke-linecap="round" stroke-linejoin="round"/>
<path d="M31.5 10.8691H29.9H28.8333C28.0333 10.8691 27.5 11.4591 27.5 12.049C27.5 12.757 28.1667 13.2289 28.8333 13.2289H30.0333" stroke="black" stroke-width="1.5" stroke-miterlimit="10" stroke-linecap="round" stroke-linejoin="round"/>
<path d="M30.1667 13.2285C30.9667 13.2285 31.5 13.8185 31.5 14.4084C31.5 15.1163 30.8333 15.5883 30.1667 15.5883H27.5" stroke="black" stroke-width="1.5" stroke-miterlimit="10" stroke-linecap="round" stroke-linejoin="round"/>
<path d="M29.9004 9.57031V10.8682" stroke="black" stroke-width="1.5" stroke-miterlimit="10" stroke-linecap="round" stroke-linejoin="round"/>
<path d="M29.9004 15.7051V17.003" stroke="black" stroke-width="1.5" stroke-miterlimit="10" stroke-linecap="round" stroke-linejoin="round"/>
<path d="M25.1 31.0438V35.9993H1.5V31.0438H3.23333V19.127H20.1667C21.1 20.4248 22.1667 21.4867 23.5 22.5486V31.0438H25.1Z" stroke="black" stroke-width="1.5" stroke-miterlimit="10" stroke-linecap="round" stroke-linejoin="round"/>
<path d="M20.1669 19.1266H6.43359V13.4632C6.43359 10.0415 9.50026 7.0918 13.3669 7.0918C14.9669 7.0918 16.4336 7.56375 17.6336 8.38967V11.4574C17.6336 14.1711 18.4336 16.8848 20.1669 19.1266Z" stroke="black" stroke-width="1.5" stroke-miterlimit="10" stroke-linecap="round" stroke-linejoin="round"/>
<path d="M16.1669 26.0879C16.1669 26.9139 15.6336 27.7398 14.9669 28.2117V31.7514H11.6336V28.2117C10.8336 27.7398 10.4336 27.0318 10.4336 26.0879C10.4336 24.6721 11.7669 23.4922 13.3669 23.4922C14.9669 23.4922 16.1669 24.6721 16.1669 26.0879Z" stroke="black" stroke-width="1.5" stroke-miterlimit="10" stroke-linecap="round" stroke-linejoin="round"/>
</svg>
