<svg width="60" height="60" viewBox="0 0 33 35" fill="none" xmlns="http://www.w3.org/2000/svg">
<path fill-rule="evenodd" clip-rule="evenodd" d="M14.8414 7.26945C15.7936 8.37906 15.4917 9.63614 14.6498 10.8289C14.4502 11.1117 14.2201 11.3903 13.9422 11.6974C13.8088 11.8448 13.7048 11.9556 13.4873 12.1845C12.9932 12.7044 12.5779 13.1413 12.2412 13.4951C12.078 13.6667 13.1925 16.0079 15.3553 18.284C17.517 20.5587 19.7439 21.7312 19.9079 21.5587L21.1531 20.2489C21.8388 19.5274 22.2019 19.1792 22.7009 18.8351C23.7382 18.1196 24.8697 17.9252 25.824 18.8223C28.9397 21.1653 30.7029 22.6031 31.5667 23.5466C33.2515 25.387 33.0307 28.2199 31.5762 29.836C31.0719 30.3964 30.4324 31.069 29.6771 31.8345C25.1084 36.6402 15.4662 33.7156 8.07644 25.9393C0.68506 18.1613 -2.09536 8.0236 2.46382 3.22804C3.28232 2.35404 3.55219 2.07048 4.34934 1.24473C5.8335 -0.292652 8.6525 -0.533375 10.3662 1.24625C11.2675 2.18234 12.7046 4.12615 14.8414 7.26945ZM23.4501 22.6646L22.2048 23.9746C20.0879 26.2013 16.4827 24.3033 13.058 20.6994C9.63097 17.0931 7.82753 13.3045 9.94514 11.0784C10.2813 10.7251 10.6962 10.2886 11.1899 9.76909C11.3891 9.55948 11.4802 9.46238 11.5896 9.34154C11.7386 9.17691 11.8611 9.03231 11.9591 8.90436C10.0654 6.13115 8.77804 4.3983 8.08406 3.6776C7.72566 3.3054 6.92313 3.37393 6.62851 3.67912C5.84274 4.49307 5.58446 4.76446 4.76925 5.63487C1.83724 8.71894 4.0818 16.9027 10.3738 23.5239C16.6638 30.143 24.4472 32.5037 27.4015 29.3966C28.1451 28.6427 28.751 28.0053 29.2173 27.4871C29.5543 27.1127 29.6146 26.34 29.2269 25.9166C28.5812 25.2113 27.0005 23.9156 24.271 21.855C24.0721 22.0233 23.8275 22.2675 23.4501 22.6646Z" fill="black"/>
</svg>
