<svg width="20" height="20" viewBox="0 0 22 17" fill="none" xmlns="http://www.w3.org/2000/svg">
<path fill-rule="evenodd" clip-rule="evenodd" d="M10.625 0C11.5334 0 12.4653 0.0233751 13.3684 0.0616251L14.4351 0.112625L15.4562 0.173188L16.4124 0.238L17.2858 0.306C18.2336 0.378545 19.1255 0.783006 19.8045 1.44823C20.4835 2.11345 20.9062 2.99682 20.9982 3.94294L21.0407 4.3945L21.1204 5.36137C21.1948 6.36331 21.25 7.45556 21.25 8.5C21.25 9.54444 21.1948 10.6367 21.1204 11.6386L21.0407 12.6055C21.0269 12.7606 21.0131 12.9104 20.9982 13.0571C20.9062 14.0033 20.4833 14.8868 19.8041 15.5521C19.1249 16.2173 18.2327 16.6217 17.2848 16.694L16.4135 16.7609L15.4573 16.8268L14.4351 16.8874L13.3684 16.9384C12.4544 16.9781 11.5398 16.9986 10.625 17C9.71021 16.9986 8.79555 16.9781 7.88163 16.9384L6.81488 16.8874L5.79381 16.8268L4.83756 16.7609L3.96419 16.694C3.01639 16.6215 2.12452 16.217 1.4455 15.5518C0.766481 14.8865 0.343798 14.0032 0.251813 13.0571L0.209313 12.6055L0.129625 11.6386C0.0483837 10.5943 0.00514677 9.54743 0 8.5C0 7.45556 0.05525 6.36331 0.129625 5.36137L0.209313 4.3945C0.223125 4.23937 0.236938 4.08956 0.251813 3.94294C0.343762 2.99699 0.766293 2.11375 1.4451 1.44855C2.1239 0.783351 3.01551 0.378784 3.96313 0.306L4.83544 0.238L5.79169 0.173188L6.81381 0.112625L7.88056 0.0616251C8.79485 0.0219225 9.70986 0.00137624 10.625 0ZM8.5 5.92344V11.0766C8.5 11.5674 9.03125 11.8734 9.45625 11.6291L13.9188 9.0525C14.0159 8.9966 14.0965 8.9161 14.1526 8.81911C14.2087 8.72211 14.2382 8.61204 14.2382 8.5C14.2382 8.38796 14.2087 8.27789 14.1526 8.18089C14.0965 8.0839 14.0159 8.0034 13.9188 7.9475L9.45625 5.372C9.35931 5.31603 9.24934 5.28657 9.1374 5.28659C9.02546 5.28661 8.9155 5.3161 8.81857 5.3721C8.72165 5.4281 8.64118 5.50864 8.58526 5.60561C8.52933 5.70258 8.49993 5.81256 8.5 5.9245V5.92344Z" fill="white"/>
</svg>
