<svg width="20" height="20" viewBox="0 0 32 32" fill="none" xmlns="http://www.w3.org/2000/svg">
<path fill-rule="evenodd" clip-rule="evenodd" d="M15.9494 0.484375C18.834 0.517292 21.4399 1.22624 23.7672 2.61121C26.0667 3.96853 27.9796 5.8931 29.3229 8.20087C30.6994 10.5422 31.4041 13.1639 31.4369 16.066C31.3552 20.0369 30.1027 23.4284 27.6796 26.2405C25.2565 29.0526 22.153 30.7924 18.9404 31.4593V20.3263H21.9777L22.6646 15.9513H18.0654V13.0858C18.0399 12.4918 18.2277 11.9082 18.595 11.4406C18.9628 10.9717 19.6105 10.7253 20.5381 10.7013H23.3154V6.86892C23.2756 6.8561 22.8974 6.8054 22.181 6.71682C21.3686 6.62176 20.5515 6.57098 19.7335 6.56472C17.8822 6.57326 16.418 7.0955 15.341 8.13143C14.2639 9.16707 13.7137 10.6654 13.6904 12.6265V15.9513H10.1904V20.3263H13.6904V31.4593C9.74574 30.7924 6.6423 29.0526 4.21918 26.2405C1.79605 23.4283 0.543677 20.0369 0.461914 16.066C0.494627 13.1638 1.19928 10.542 2.57589 8.20087C3.91919 5.8931 5.83207 3.96853 8.13162 2.61121C10.4588 1.2265 13.0648 0.517558 15.9494 0.484375Z" fill="white"/>
</svg>
