<svg width="28" height="28" viewBox="0 0 42 42" fill="none" xmlns="http://www.w3.org/2000/svg">
<path d="M39.1179 20.7284C39.1179 30.7403 31.0013 38.8659 20.9803 38.8659C10.9593 38.8659 2.84277 30.7403 2.84277 20.7284C2.84277 10.7074 10.9593 2.59082 20.9803 2.59082C31.0013 2.59082 39.1179 10.7074 39.1179 20.7284Z" fill="#283544"/>
<path d="M29.4824 16.1386C29.3834 16.1964 27.0273 17.4149 27.0273 20.1165C27.1383 23.1976 30.0006 24.2782 30.0497 24.2782C30.0006 24.3359 29.6176 25.7501 28.4829 27.2325C27.5825 28.5095 26.5831 29.797 25.0654 29.797C23.6218 29.797 23.1036 28.9459 21.4379 28.9459C19.6491 28.9459 19.143 29.797 17.7734 29.797C16.2558 29.797 15.1823 28.4405 14.2328 27.1756C12.9992 25.5199 11.9507 22.9217 11.9137 20.427C11.8887 19.105 12.1607 17.8055 12.8511 16.7018C13.8256 15.1608 15.5653 14.1148 17.4652 14.0803C18.9209 14.0346 20.2164 15.0116 21.1048 15.0116C21.9561 15.0116 23.5478 14.0803 25.3487 14.0803C26.126 14.0811 28.1989 14.2993 29.4824 16.1386ZM20.9817 13.8164C20.7226 12.6091 21.4379 11.4019 22.1042 10.6318C22.9556 9.70048 24.3002 9.06836 25.4597 9.06836C25.5338 10.2756 25.0646 11.4596 24.2262 12.3219C23.4738 13.2532 22.1782 13.9543 20.9817 13.8164Z" fill="white"/>
</svg>
