<svg width="28" height="28" viewBox="0 0 43 42" fill="none" xmlns="http://www.w3.org/2000/svg">
<path d="M39.4774 21.1319C39.4774 19.6406 39.3539 18.5524 39.0866 17.4238H21.71V24.1548H31.9097C31.7041 25.8275 30.5937 28.3467 28.1259 30.0394L28.0913 30.2647L33.5855 34.4359L33.9662 34.4731C37.462 31.3091 39.4774 26.6538 39.4774 21.1319Z" fill="#4285F4"/>
<path d="M21.7093 38.8659C26.7063 38.8659 30.9013 37.2536 33.9655 34.4726L28.1253 30.0388C26.5624 31.1069 24.4648 31.8526 21.7093 31.8526C16.8151 31.8526 12.6612 28.6886 11.1805 24.3154L10.9634 24.3335L5.25049 28.6664L5.17578 28.8699C8.21923 34.7949 14.4707 38.8659 21.7093 38.8659Z" fill="#34A853"/>
<path d="M11.1809 24.3163C10.7902 23.1878 10.5641 21.9785 10.5641 20.7291C10.5641 19.4795 10.7902 18.2704 11.1604 17.1419L11.15 16.9015L5.36551 12.499L5.17626 12.5872C3.9219 15.0459 3.20215 17.8069 3.20215 20.7291C3.20215 23.6512 3.9219 26.4121 5.17626 28.8708L11.1809 24.3163Z" fill="#FBBC05"/>
<path d="M21.7094 9.60396C25.1847 9.60396 27.529 11.0751 28.8657 12.3045L34.089 7.30659C30.8811 4.38443 26.7064 2.59082 21.7094 2.59082C14.4708 2.59082 8.21925 6.66166 5.17578 12.5866L11.1599 17.1412C12.6612 12.768 16.8152 9.60396 21.7094 9.60396Z" fill="#EB4335"/>
</svg>
